G04 EasyPC Gerber Version 21.0.3 Build 4286 *
%FSLAX35Y35*%
%MOIN*%
%ADD17C,0.00100*%
%ADD10C,0.00394*%
%ADD13C,0.00500*%
%ADD112C,0.00600*%
%ADD12C,0.00787*%
%ADD16C,0.01969*%
%ADD77C,0.03937*%
X0Y0D02*
D02*
D10*
X324502Y50014D02*
G75*
G02Y50407J197D01*
G01*
Y50014D02*
G75*
G03Y50407J197D01*
G01*
X326077Y175250D02*
Y45250D01*
X354423Y175250D02*
Y45250D01*
D02*
D12*
X45553Y80250D02*
Y221093D01*
X11482*
Y59250*
X33518*
X66982Y17553D02*
X74856D01*
Y22474D02*
X65112D01*
X90014Y22081D02*
Y17947D01*
X126037Y17553D02*
X133911D01*
Y22474D02*
X124167D01*
X151628Y22081D02*
Y17947D01*
X221333Y58006D02*
X219167D01*
Y69423*
X221333*
Y58006*
X227632D02*
X222711D01*
X261864Y384778D02*
X192376D01*
Y348163*
X272297*
Y366470*
X306313Y12789D02*
X314187D01*
Y17711D02*
X304443D01*
X325053Y17317D02*
Y13183D01*
X379108Y67179D02*
Y82868D01*
X389108*
Y61490*
X384108*
X443557Y55447D02*
Y124935D01*
X406943*
Y45014*
X425250*
X443557Y134187D02*
Y203675D01*
X406943*
Y123754*
X425250*
X443557Y212927D02*
Y282415D01*
X406943*
Y202494*
X425250*
X443557Y291667D02*
Y361156D01*
X406943*
Y281234*
X425250*
D02*
D13*
X54950Y132137D02*
Y129325D01*
X55263Y128700*
X55887Y128387*
X57137*
X57763Y128700*
X58075Y129325*
Y132137*
X60575Y128387D02*
X61825D01*
X61200D02*
Y132137D01*
X60575Y131513*
X62455Y29741D02*
Y25991D01*
X65580*
X67455D02*
Y29741D01*
X70580*
X69955Y27866D02*
X67455D01*
Y25991D02*
X70580D01*
X72455D02*
Y29741D01*
X74330*
X74955Y29428*
X75267Y29116*
X75580Y28491*
Y27241*
X75267Y26616*
X74955Y26303*
X74330Y25991*
X72455*
X77455Y26303D02*
X78080Y25991D01*
X79017*
X79642Y26303*
X79955Y26928*
Y27241*
X79642Y27866*
X79017Y28178*
X77455*
Y29741*
X79955*
X61483Y59384D02*
X61795Y59696D01*
X62108Y60321*
X61795Y60946*
X61483Y61259*
X58358*
Y61884*
Y61259D02*
Y60009D01*
X62108Y66884D02*
Y64384D01*
X59920Y66571*
X59295Y66884*
X58670Y66571*
X58358Y65946*
Y65009*
X58670Y64384*
X85486Y25991D02*
Y29741D01*
X87674*
X88299Y29428*
X88611Y28803*
X88299Y28178*
X87674Y27866*
X85486*
X87674D02*
X88611Y25991D01*
X90486Y26303D02*
X91111Y25991D01*
X92049*
X92674Y26303*
X92986Y26928*
Y27241*
X92674Y27866*
X92049Y28178*
X90486*
Y29741*
X92986*
X122100Y30607D02*
Y26857D01*
X125226*
X127100D02*
Y30607D01*
X130226*
X129600Y28732D02*
X127100D01*
Y26857D02*
X130226D01*
X132100D02*
Y30607D01*
X133976*
X134600Y30294*
X134913Y29982*
X135226Y29357*
Y28107*
X134913Y27482*
X134600Y27169*
X133976Y26857*
X132100*
X138663D02*
Y30607D01*
X137100Y28107*
X139600*
X147691Y26857D02*
Y30607D01*
X149878*
X150504Y30294*
X150816Y29669*
X150504Y29044*
X149878Y28732*
X147691*
X149878D02*
X150816Y26857D01*
X154254D02*
Y30607D01*
X152691Y28107*
X155191*
X219313Y62777D02*
X218063D01*
X218687D02*
Y59027D01*
X219313D02*
X218063D01*
X212125Y62152D02*
X212437Y62465D01*
X213063Y62777*
X214000*
X214625Y62465*
X214937Y62152*
X215250Y61527*
Y60277*
X214937Y59652*
X214625Y59339*
X214000Y59027*
X213063*
X212437Y59339*
X212125Y59652*
X209625Y62777D02*
X208375D01*
X209000D02*
Y59027D01*
X209625Y59652*
X261864Y364908D02*
X261552Y365220D01*
X260927Y365533*
X260302Y365220*
X259989Y364908*
Y361783*
X259364*
X259989D02*
X261239D01*
X256552Y365220D02*
X255927Y365533D01*
X255302*
X254677Y365220*
X254364Y364595*
X254677Y363970*
X255302Y363658*
X255927*
X255302D02*
X254677Y363345D01*
X254364Y362720*
X254677Y362095*
X255302Y361783*
X255927*
X256552Y362095*
X300250Y24937D02*
Y21187D01*
X303375*
X305250D02*
Y24937D01*
X308375*
X307750Y23063D02*
X305250D01*
Y21187D02*
X308375D01*
X310250D02*
Y24937D01*
X312125*
X312750Y24625*
X313063Y24313*
X313375Y23687*
Y22437*
X313063Y21813*
X312750Y21500*
X312125Y21187*
X310250*
X315563Y21500D02*
X316187Y21187D01*
X316813*
X317437Y21500*
X317750Y22125*
X317437Y22750*
X316813Y23063*
X316187*
X316813D02*
X317437Y23375D01*
X317750Y24000*
X317437Y24625*
X316813Y24937*
X316187*
X315563Y24625*
X320053Y21187D02*
Y24937D01*
X322241*
X322866Y24625*
X323178Y24000*
X322866Y23375*
X322241Y23063*
X320053*
X322241D02*
X323178Y21187D01*
X325366Y21500D02*
X325991Y21187D01*
X326616*
X327241Y21500*
X327553Y22125*
X327241Y22750*
X326616Y23063*
X325991*
X326616D02*
X327241Y23375D01*
X327553Y24000*
X327241Y24625*
X326616Y24937*
X325991*
X325366Y24625*
X341813Y110250D02*
X341500Y109937D01*
X341187Y109313*
X341500Y108687*
X341813Y108375*
X344937*
Y107750*
Y108375D02*
Y109625D01*
X341187Y104625D02*
Y103375D01*
Y104000D02*
X344937D01*
X344313Y104625*
X382546Y67179D02*
X382858Y67492D01*
X383171Y68117*
X382858Y68742*
X382546Y69054*
X379421*
Y69679*
Y69054D02*
Y67804D01*
X383171Y72804D02*
Y74054D01*
Y73429D02*
X379421D01*
X380046Y72804*
X382858Y77492D02*
X383171Y78117D01*
Y78742*
X382858Y79367*
X382233Y79679*
X380358*
X379733Y79367*
X379421Y78742*
Y78117*
X379733Y77492*
X380358Y77179*
X382233*
X382858Y77492*
X379733Y79367*
X423687Y55447D02*
X424000Y55759D01*
X424313Y56384*
X424000Y57009*
X423687Y57322*
X420563*
Y57947*
Y57322D02*
Y56072D01*
X424313Y62009D02*
X420563D01*
X423063Y60447*
Y62947*
X423687Y134187D02*
X424000Y134500D01*
X424313Y135124*
X424000Y135750*
X423687Y136062*
X420563*
Y136687*
Y136062D02*
Y134812D01*
X424000Y139187D02*
X424313Y139812D01*
Y140750*
X424000Y141374*
X423375Y141687*
X423063*
X422437Y141374*
X422125Y140750*
Y139187*
X420563*
Y141687*
X423687Y212927D02*
X424000Y213240D01*
X424313Y213865*
X424000Y214490*
X423687Y214802*
X420563*
Y215427*
Y214802D02*
Y213552D01*
X423375Y217927D02*
X422750Y218240D01*
X422437Y218865*
Y219490*
X422750Y220115*
X423375Y220427*
X424000Y220115*
X424313Y219490*
Y218865*
X424000Y218240*
X423375Y217927*
X422437*
X421500Y218240*
X420875Y218865*
X420563Y219490*
X423687Y291667D02*
X424000Y291980D01*
X424313Y292605*
X424000Y293230*
X423687Y293543*
X420563*
Y294167*
Y293543D02*
Y292293D01*
X424313Y296667D02*
X420563Y299167D01*
Y296667*
D02*
D16*
X19689Y53400D02*
Y47494D01*
X14522Y52661*
X13045Y53400*
X11569Y52661*
X10831Y51185*
Y48970*
X11569Y47494*
X23429Y236549D02*
Y230644D01*
X18262Y235811*
X16785Y236549*
X15309Y235811*
X14571Y234335*
Y232120*
X15309Y230644*
X21215Y242455D02*
X19738Y243193D01*
X19000Y244669*
Y246146*
X19738Y247622*
X21215Y248360*
X22691Y247622*
X23429Y246146*
Y244669*
X22691Y243193*
X21215Y242455*
X19000*
X16785Y243193*
X15309Y244669*
X14571Y246146*
X43114Y236549D02*
Y230644D01*
X37947Y235811*
X36470Y236549*
X34994Y235811*
X34256Y234335*
Y232120*
X34994Y230644*
X42376Y242455D02*
X43114Y243931D01*
Y246146*
X42376Y247622*
X40900Y248360*
X40161*
X38685Y247622*
X37947Y246146*
Y242455*
X34256*
Y248360*
X45083Y50939D02*
Y53892D01*
Y52415D02*
X36224D01*
X37701Y50939*
X74118Y258203D02*
X76333D01*
Y257465*
X75594Y255988*
X74856Y255250*
X73380Y254512*
X71904*
X70427Y255250*
X69689Y255988*
X68951Y257465*
Y260417*
X69689Y261894*
X70427Y262632*
X71904Y263370*
X73380*
X74856Y262632*
X75594Y261894*
X76333Y260417*
X84453Y254512D02*
Y263370D01*
X80762D02*
X88144D01*
X92573Y254512D02*
Y263370D01*
X99955*
X98478Y258941D02*
X92573D01*
Y254512D02*
X99955D01*
X119886D02*
Y263370D01*
X116195D02*
X123577D01*
X133911Y255250D02*
X133173Y254512D01*
X131697*
X130220*
X128744Y255250*
X128006Y256726*
Y258941*
X128744Y259679*
X130220Y260417*
X131697*
X133173Y259679*
X133911Y258941*
Y258203*
X133173Y257465*
X131697Y256726*
X130220*
X128744Y257465*
X128006Y258203*
X139817Y255250D02*
X141293Y254512D01*
X144246*
X145722Y255250*
Y256726*
X144246Y257465*
X141293*
X139817Y258203*
Y259679*
X141293Y260417*
X144246*
X145722Y259679*
X153104Y260417D02*
X156057D01*
X154581Y261894D02*
Y255250D01*
X155319Y254512*
X156057*
X156795Y255250*
X180417Y258941D02*
X181894Y258203D01*
X182632Y256726*
X181894Y255250*
X180417Y254512*
X175250*
Y263370*
X180417*
X181894Y262632*
X182632Y261156*
X181894Y259679*
X180417Y258941*
X175250*
X187061Y256726D02*
X187799Y255250D01*
X189276Y254512*
X190752*
X192228Y255250*
X192967Y256726*
Y258203*
X192228Y259679*
X190752Y260417*
X189276*
X187799Y259679*
X187061Y258203*
Y256726*
X198872Y259679D02*
X200348Y260417D01*
X202563*
X204039Y259679*
X204778Y258203*
Y255988*
X204039Y255250*
X202563Y254512*
X201087*
X199610Y255250*
X198872Y255988*
Y256726*
X199610Y257465*
X201087Y258203*
X202563*
X204039Y257465*
X204778Y256726*
Y255988D02*
Y254512D01*
X210683D02*
Y260417D01*
Y258203D02*
X211421Y259679D01*
X212898Y260417*
X214374*
X215850Y259679*
X228400Y258203D02*
X227661Y259679D01*
X226185Y260417*
X224709*
X223232Y259679*
X222494Y258203*
Y256726*
X223232Y255250*
X224709Y254512*
X226185*
X227661Y255250*
X228400Y256726*
Y254512D02*
Y263370D01*
X246116D02*
X249807Y254512D01*
X253498Y263370*
X259404Y254512D02*
X262356D01*
X260880D02*
Y263370D01*
X259404Y261894*
X76333Y241815D02*
X75594Y241077D01*
X74118Y240339*
X71904*
X70427Y241077*
X69689Y241815*
X68951Y243291*
Y246244*
X69689Y247720*
X70427Y248459*
X71904Y249197*
X74118*
X75594Y248459*
X76333Y247720*
X80762Y242553D02*
X81500Y241077D01*
X82976Y240339*
X84453*
X85929Y241077*
X86667Y242553*
Y244030*
X85929Y245506*
X84453Y246244*
X82976*
X81500Y245506*
X80762Y244030*
Y242553*
X92573Y246244D02*
Y238124D01*
Y242553D02*
X93311Y241077D01*
X94787Y240339*
X96264*
X97740Y241077*
X98478Y242553*
Y244030*
X97740Y245506*
X96264Y246244*
X94787*
X93311Y245506*
X92573Y244030*
Y242553*
X104384Y246244D02*
X105122Y243291D01*
X106598Y241815*
X108075*
X109551Y243291*
X110289Y246244*
X109551Y243291D02*
X108813Y240339D01*
X108075Y238862*
X106598Y238124*
X105122Y238862*
X116195Y240339D02*
Y246244D01*
Y244030D02*
X116933Y245506D01*
X118409Y246244*
X119886*
X121362Y245506*
X130959Y240339D02*
Y246244D01*
Y248459D02*
X145722Y244030*
X144984Y245506D01*
X143508Y246244*
X142031*
X140555Y245506*
X139817Y244030*
Y243291*
X140555Y241815*
X142031Y241077*
X143508*
X144984Y241815*
X145722Y243291*
Y246244D02*
Y240339D01*
X144984Y238862*
X143508Y238124*
X141293*
X139817Y238862*
X151628Y240339D02*
Y249197D01*
Y244030D02*
X152366Y245506D01*
X153843Y246244*
X155319*
X156795Y245506*
X157533Y244030*
Y240339*
X164915Y246244D02*
X167868D01*
X166392Y247720D02*
Y241077D01*
X167130Y240339*
X167868*
X168606Y241077*
X192967Y240339D02*
X187061D01*
X192228Y245506*
X192967Y246982*
X192228Y248459*
X190752Y249197*
X188537*
X187061Y248459*
X199610Y241077D02*
X201087Y240339D01*
X202563*
X204039Y241077*
X204778Y242553*
Y246982*
X204039Y248459*
X202563Y249197*
X201087*
X199610Y248459*
X198872Y246982*
Y242553*
X199610Y241077*
X204039Y248459*
X212159Y240339D02*
X215112D01*
X213636D02*
Y249197D01*
X212159Y247720*
X224709Y240339D02*
X226185Y241077D01*
X227661Y242553*
X228400Y244768*
Y246982*
X227661Y248459*
X226185Y249197*
X224709*
X223232Y248459*
X222494Y246982*
X223232Y245506*
X224709Y244768*
X226185*
X227661Y245506*
X228400Y246982*
X72642Y226165D02*
Y235024D01*
X68951D02*
X76333D01*
X86667Y229856D02*
X85929Y231333D01*
X84453Y232071*
X82976*
X81500Y231333*
X80762Y229856*
Y228380*
X81500Y226904*
X82976Y226165*
X84453*
X85929Y226904*
X86667Y228380*
Y226165D02*
Y235024D01*
X97740Y230594D02*
X99217Y229856D01*
X99955Y228380*
X99217Y226904*
X97740Y226165*
X92573*
Y235024*
X97740*
X99217Y234285*
X99955Y232809*
X99217Y231333*
X97740Y230594*
X92573*
X70329Y34778D02*
X71805Y34039D01*
X74020*
X75496Y34778*
X76234Y36254*
Y36992*
X75496Y38469*
X74020Y39207*
X70329*
Y42898*
X76234*
X82140D02*
X85831Y34039D01*
X89522Y42898*
X112258Y34039D02*
Y42898D01*
X119640*
X118163Y38469D02*
X112258D01*
X124069Y34039D02*
X127760Y42898D01*
X131451Y34039*
X125545Y37730D02*
X129974D01*
X135880Y42898D02*
Y36254D01*
X136618Y34778*
X138094Y34039*
X141047*
X142524Y34778*
X143262Y36254*
Y42898*
X147691D02*
Y34039D01*
X155073*
X163193D02*
Y42898D01*
X159502D02*
X166884D01*
X202563Y329315D02*
Y338173D01*
X198872Y332268*
X204778*
X263341Y329315D02*
X266293D01*
X264817D02*
Y338173D01*
X263341Y336697*
X262061Y41835D02*
Y50693D01*
X267228*
X268705Y49955*
X269443Y48478*
X268705Y47002*
X267228Y46264*
X262061*
X267228D02*
X269443Y41835D01*
X273872D02*
Y50693D01*
X281254*
X279778Y46264D02*
X273872D01*
Y41835D02*
X281254D01*
X285683D02*
X289374Y50693D01*
X293065Y41835*
X287159Y45526D02*
X291589D01*
X297494Y41835D02*
Y50693D01*
X301923*
X303400Y49955*
X304138Y49217*
X304876Y47740*
Y44787*
X304138Y43311*
X303400Y42573*
X301923Y41835*
X297494*
X312996D02*
Y46264D01*
X309305Y50693*
X312996Y46264D02*
X316687Y50693D01*
X393508Y322671D02*
Y325624D01*
Y324148D02*
X384650D01*
X386126Y322671*
X392770Y333006D02*
X393508Y334482D01*
Y336697*
X392770Y338173*
X391293Y338911*
X390555*
X389079Y338173*
X388341Y336697*
Y333006*
X384650*
Y338911*
X397445Y222278D02*
Y225230D01*
Y223754D02*
X388587D01*
X390063Y222278*
X396707Y233350D02*
X397445Y234827D01*
Y236303*
X396707Y237780*
X395230Y238518*
X390801*
X389325Y237780*
X388587Y236303*
Y234827*
X389325Y233350*
X390801Y232612*
X395230*
X396707Y233350*
X389325Y237780*
X399413Y47081D02*
Y50033D01*
Y48557D02*
X390555D01*
X392031Y47081*
X400644Y132219D02*
X401382Y133695D01*
Y135909*
X400644Y137386*
X399167Y138124*
X398429*
X396953Y137386*
X396215Y135909*
Y132219*
X392524*
Y138124*
X427169Y367868D02*
Y370821D01*
Y369344D02*
X418311D01*
X419787Y367868*
X424955Y378203D02*
X423478Y378941D01*
X422740Y380417*
Y381894*
X423478Y383370*
X424955Y384108*
X426431Y383370*
X427169Y381894*
Y380417*
X426431Y378941*
X424955Y378203*
X422740*
X420526Y378941*
X419049Y380417*
X418311Y381894*
D02*
D17*
X59250Y119250D02*
X61250D01*
Y121250*
X59250*
Y119250*
G36*
X61250*
Y121250*
X59250*
Y119250*
G37*
X69250D02*
X71250D01*
Y121250*
X69250*
Y119250*
G36*
X71250*
Y121250*
X69250*
Y119250*
G37*
X91250Y79250D02*
Y81250D01*
X89250*
Y79250*
X91250*
G36*
Y81250*
X89250*
Y79250*
X91250*
G37*
Y89250D02*
Y91250D01*
X89250*
Y89250*
X91250*
G36*
Y91250*
X89250*
Y89250*
X91250*
G37*
Y99250D02*
Y101250D01*
X89250*
Y99250*
X91250*
G36*
Y101250*
X89250*
Y99250*
X91250*
G37*
Y109250D02*
Y111250D01*
X89250*
Y109250*
X91250*
G36*
Y111250*
X89250*
Y109250*
X91250*
G37*
Y119250D02*
Y121250D01*
X89250*
Y119250*
X91250*
G36*
Y121250*
X89250*
Y119250*
X91250*
G37*
Y129250D02*
Y131250D01*
X89250*
Y129250*
X91250*
G36*
Y131250*
X89250*
Y129250*
X91250*
G37*
Y139250D02*
Y141250D01*
X89250*
Y139250*
X91250*
G36*
Y141250*
X89250*
Y139250*
X91250*
G37*
Y149250D02*
Y151250D01*
X89250*
Y149250*
X91250*
G36*
Y151250*
X89250*
Y149250*
X91250*
G37*
Y159250D02*
Y161250D01*
X89250*
Y159250*
X91250*
G36*
Y161250*
X89250*
Y159250*
X91250*
G37*
Y169250D02*
Y171250D01*
X89250*
Y169250*
X91250*
G36*
Y171250*
X89250*
Y169250*
X91250*
G37*
Y179250D02*
Y181250D01*
X89250*
Y179250*
X91250*
G36*
Y181250*
X89250*
Y179250*
X91250*
G37*
Y189250D02*
Y191250D01*
X89250*
Y189250*
X91250*
G36*
Y191250*
X89250*
Y189250*
X91250*
G37*
Y199250D02*
Y201250D01*
X89250*
Y199250*
X91250*
G36*
Y201250*
X89250*
Y199250*
X91250*
G37*
X101250Y79250D02*
Y81250D01*
X99250*
Y79250*
X101250*
G36*
Y81250*
X99250*
Y79250*
X101250*
G37*
Y89250D02*
Y91250D01*
X99250*
Y89250*
X101250*
G36*
Y91250*
X99250*
Y89250*
X101250*
G37*
Y99250D02*
Y101250D01*
X99250*
Y99250*
X101250*
G36*
Y101250*
X99250*
Y99250*
X101250*
G37*
Y109250D02*
Y111250D01*
X99250*
Y109250*
X101250*
G36*
Y111250*
X99250*
Y109250*
X101250*
G37*
Y119250D02*
Y121250D01*
X99250*
Y119250*
X101250*
G36*
Y121250*
X99250*
Y119250*
X101250*
G37*
Y129250D02*
Y131250D01*
X99250*
Y129250*
X101250*
G36*
Y131250*
X99250*
Y129250*
X101250*
G37*
Y139250D02*
Y141250D01*
X99250*
Y139250*
X101250*
G36*
Y141250*
X99250*
Y139250*
X101250*
G37*
Y149250D02*
Y151250D01*
X99250*
Y149250*
X101250*
G36*
Y151250*
X99250*
Y149250*
X101250*
G37*
Y159250D02*
Y161250D01*
X99250*
Y159250*
X101250*
G36*
Y161250*
X99250*
Y159250*
X101250*
G37*
Y169250D02*
Y171250D01*
X99250*
Y169250*
X101250*
G36*
Y171250*
X99250*
Y169250*
X101250*
G37*
Y179250D02*
Y181250D01*
X99250*
Y179250*
X101250*
G36*
Y181250*
X99250*
Y179250*
X101250*
G37*
Y189250D02*
Y191250D01*
X99250*
Y189250*
X101250*
G36*
Y191250*
X99250*
Y189250*
X101250*
G37*
Y199250D02*
Y201250D01*
X99250*
Y199250*
X101250*
G36*
Y201250*
X99250*
Y199250*
X101250*
G37*
X199250Y289250D02*
X201250D01*
Y291250*
X199250*
Y289250*
G36*
X201250*
Y291250*
X199250*
Y289250*
G37*
Y299250D02*
X201250D01*
Y301250*
X199250*
Y299250*
G36*
X201250*
Y301250*
X199250*
Y299250*
G37*
X209250Y289250D02*
X211250D01*
Y291250*
X209250*
Y289250*
G36*
X211250*
Y291250*
X209250*
Y289250*
G37*
Y299250D02*
X211250D01*
Y301250*
X209250*
Y299250*
G36*
X211250*
Y301250*
X209250*
Y299250*
G37*
X219250Y19250D02*
X221250D01*
Y21250*
X219250*
Y19250*
G36*
X221250*
Y21250*
X219250*
Y19250*
G37*
Y29250D02*
X221250D01*
Y31250*
X219250*
Y29250*
G36*
X221250*
Y31250*
X219250*
Y29250*
G37*
Y289250D02*
X221250D01*
Y291250*
X219250*
Y289250*
G36*
X221250*
Y291250*
X219250*
Y289250*
G37*
Y299250D02*
X221250D01*
Y301250*
X219250*
Y299250*
G36*
X221250*
Y301250*
X219250*
Y299250*
G37*
X229250Y19250D02*
X231250D01*
Y21250*
X229250*
Y19250*
G36*
X231250*
Y21250*
X229250*
Y19250*
G37*
Y29250D02*
X231250D01*
Y31250*
X229250*
Y29250*
G36*
X231250*
Y31250*
X229250*
Y29250*
G37*
Y289250D02*
X231250D01*
Y291250*
X229250*
Y289250*
G36*
X231250*
Y291250*
X229250*
Y289250*
G37*
Y299250D02*
X231250D01*
Y301250*
X229250*
Y299250*
G36*
X231250*
Y301250*
X229250*
Y299250*
G37*
X239250Y19250D02*
X241250D01*
Y21250*
X239250*
Y19250*
G36*
X241250*
Y21250*
X239250*
Y19250*
G37*
Y29250D02*
X241250D01*
Y31250*
X239250*
Y29250*
G36*
X241250*
Y31250*
X239250*
Y29250*
G37*
Y289250D02*
X241250D01*
Y291250*
X239250*
Y289250*
G36*
X241250*
Y291250*
X239250*
Y289250*
G37*
Y299250D02*
X241250D01*
Y301250*
X239250*
Y299250*
G36*
X241250*
Y301250*
X239250*
Y299250*
G37*
X249250Y19250D02*
X251250D01*
Y21250*
X249250*
Y19250*
G36*
X251250*
Y21250*
X249250*
Y19250*
G37*
Y29250D02*
X251250D01*
Y31250*
X249250*
Y29250*
G36*
X251250*
Y31250*
X249250*
Y29250*
G37*
Y289250D02*
X251250D01*
Y291250*
X249250*
Y289250*
G36*
X251250*
Y291250*
X249250*
Y289250*
G37*
Y299250D02*
X251250D01*
Y301250*
X249250*
Y299250*
G36*
X251250*
Y301250*
X249250*
Y299250*
G37*
X259250Y19250D02*
X261250D01*
Y21250*
X259250*
Y19250*
G36*
X261250*
Y21250*
X259250*
Y19250*
G37*
Y29250D02*
X261250D01*
Y31250*
X259250*
Y29250*
G36*
X261250*
Y31250*
X259250*
Y29250*
G37*
Y289250D02*
X261250D01*
Y291250*
X259250*
Y289250*
G36*
X261250*
Y291250*
X259250*
Y289250*
G37*
Y299250D02*
X261250D01*
Y301250*
X259250*
Y299250*
G36*
X261250*
Y301250*
X259250*
Y299250*
G37*
X269250Y19250D02*
X271250D01*
Y21250*
X269250*
Y19250*
G36*
X271250*
Y21250*
X269250*
Y19250*
G37*
Y29250D02*
X271250D01*
Y31250*
X269250*
Y29250*
G36*
X271250*
Y31250*
X269250*
Y29250*
G37*
Y289250D02*
X271250D01*
Y291250*
X269250*
Y289250*
G36*
X271250*
Y291250*
X269250*
Y289250*
G37*
Y299250D02*
X271250D01*
Y301250*
X269250*
Y299250*
G36*
X271250*
Y301250*
X269250*
Y299250*
G37*
X279250Y19250D02*
X281250D01*
Y21250*
X279250*
Y19250*
G36*
X281250*
Y21250*
X279250*
Y19250*
G37*
Y29250D02*
X281250D01*
Y31250*
X279250*
Y29250*
G36*
X281250*
Y31250*
X279250*
Y29250*
G37*
X281250Y179250D02*
Y181250D01*
X279250*
Y179250*
X281250*
G36*
Y181250*
X279250*
Y179250*
X281250*
G37*
Y189250D02*
Y191250D01*
X279250*
Y189250*
X281250*
G36*
Y191250*
X279250*
Y189250*
X281250*
G37*
Y199250D02*
Y201250D01*
X279250*
Y199250*
X281250*
G36*
Y201250*
X279250*
Y199250*
X281250*
G37*
Y209250D02*
Y211250D01*
X279250*
Y209250*
X281250*
G36*
Y211250*
X279250*
Y209250*
X281250*
G37*
Y219250D02*
Y221250D01*
X279250*
Y219250*
X281250*
G36*
Y221250*
X279250*
Y219250*
X281250*
G37*
X291250Y179250D02*
Y181250D01*
X289250*
Y179250*
X291250*
G36*
Y181250*
X289250*
Y179250*
X291250*
G37*
Y189250D02*
Y191250D01*
X289250*
Y189250*
X291250*
G36*
Y191250*
X289250*
Y189250*
X291250*
G37*
Y199250D02*
Y201250D01*
X289250*
Y199250*
X291250*
G36*
Y201250*
X289250*
Y199250*
X291250*
G37*
Y209250D02*
Y211250D01*
X289250*
Y209250*
X291250*
G36*
Y211250*
X289250*
Y209250*
X291250*
G37*
Y219250D02*
Y221250D01*
X289250*
Y219250*
X291250*
G36*
Y221250*
X289250*
Y219250*
X291250*
G37*
D02*
D77*
X18227Y340153D02*
G75*
G03X18079Y339921I608J-552D01*
G01*
G75*
G03X17994Y339624I1187J-501*
G01*
G75*
G03X17952Y339173I3396J-544*
G01*
G75*
G03X17941Y338369I29889J-797*
G01*
G75*
G03X18133Y337006I4948J1*
G01*
G75*
G03X18726Y336445I770J221*
G01*
G75*
G03X20144Y336280I1478J6491*
G01*
G75*
G03X27339Y336232I14425J1649100*
G01*
X36168Y336194*
X27229Y322169*
G75*
G03X23775Y316739I3205608J-2042880*
G01*
G75*
G03X20802Y312043I1780248J-1130366*
G01*
G75*
G03X18224Y307955I5322256J-3359507*
G01*
G75*
G03X17903Y307394I6435J-4055*
G01*
G75*
G03X17713Y306967I3589J-1853*
G01*
G75*
G03X17584Y306543I3088J-1169*
G01*
G75*
G03X17500Y306054I4193J-971*
G01*
G75*
G03X17448Y305425I11072J-1238*
G01*
G75*
G03X17441Y304474I9913J-549*
G01*
G75*
G03X17547Y303758I3407J140*
G01*
G75*
G03X17771Y303221I1993J516*
G01*
G75*
G03X18122Y302821I1252J745*
G01*
G75*
G03X18619Y302628I565J719*
G01*
G75*
G03X19996Y302558I2057J27025*
G01*
G75*
G03X22580Y302524I2734J110031*
G01*
G75*
G03X30238Y302519I7634J5286580*
G01*
X41970*
X42256Y302835*
G75*
G03X42404Y303067I-608J552*
G01*
G75*
G03X42489Y303363I-1188J501*
G01*
G75*
G03X42531Y303815I-3397J544*
G01*
G75*
G03X42541Y304619I-29904J797*
G01*
G75*
G03X42337Y305978I-4621J0*
G01*
G75*
G03X41719Y306544I-793J-244*
G01*
G75*
G03X40230Y306708I-1548J-7225*
G01*
G75*
G03X32571Y306755I-15552J-1916367*
G01*
X23170Y306794*
X32157Y320894*
G75*
G03X35625Y326347I-2623832J1672542*
G01*
G75*
G03X38598Y331050I-1447279J918230*
G01*
G75*
G03X41187Y335163I-4908228J3091949*
G01*
G75*
G03X41465Y335669I-4120J2589*
G01*
G75*
G03X41628Y336092I-2809J1331*
G01*
G75*
G03X41724Y336524I-2701J827*
G01*
G75*
G03X41773Y337086I-5202J731*
G01*
G75*
G03X41788Y337969I-29295J938*
G01*
X41791Y339593*
X41302Y340031*
X40811Y340469*
X29662*
G75*
G03X22233Y340463I184J-5255318*
G01*
G75*
G03X19873Y340429I130J-90196*
G01*
G75*
G03X18639Y340358I562J-20474*
G01*
G75*
G03X18227Y340153I56J-627*
G01*
X56041Y330771D02*
G75*
G03X52503Y329639I1931J-12139D01*
G01*
G75*
G03X49559Y327520I4986J-10031*
G01*
G75*
G03X47370Y324501I8438J-8419*
G01*
G75*
G03X46038Y320746I13772J-6998*
G01*
G75*
G03X45778Y319032I13938J-2993*
G01*
G75*
G03X45653Y316876I33790J-3044*
G01*
G75*
G03X45665Y314689I34419J-902*
G01*
G75*
G03X45832Y312869I16909J633*
G01*
G75*
G03X46286Y310627I20863J3057*
G01*
G75*
G03X46948Y308689I13144J3411*
G01*
G75*
G03X47835Y307017I10542J4519*
G01*
G75*
G03X48960Y305571I8491J5446*
G01*
G75*
G03X50211Y304416I8531J7980*
G01*
G75*
G03X51576Y303497I6354J7973*
G01*
G75*
G03X53104Y302792I5239J9338*
G01*
G75*
G03X54841Y302272I4987J13504*
G01*
G75*
G03X56568Y302027I2267J9774*
G01*
G75*
G03X59057Y301971I2149J39967*
G01*
G75*
G03X61593Y302072I-338J40134*
G01*
G75*
G03X63514Y302345I-1004J13973*
G01*
G75*
G03X65432Y302815I-6928J32473*
G01*
G75*
G03X66967Y303329I-4035J14578*
G01*
G75*
G03X68089Y303855I-3706J9365*
G01*
G75*
G03X68594Y304356I-615J1127*
G01*
G75*
G03X68757Y304903I-1140J637*
G01*
G75*
G03X68791Y306002I-14732J1009*
G01*
G75*
G03X68748Y307102I-16742J-102*
G01*
G75*
G03X68575Y307533I-759J-54*
G01*
G75*
G03X68258Y307710I-387J-320*
G01*
G75*
G03X67755Y307704I-232J-1659*
G01*
G75*
G03X66968Y307512I851J-5196*
G01*
G75*
G03X65641Y307054I13104J-40076*
G01*
G75*
G02X63977Y306505I-9681J26544*
G01*
G75*
G02X62545Y306161I-4013J13579*
G01*
G75*
G02X61122Y305976I-2428J13078*
G01*
G75*
G02X59491Y305913I-1679J22178*
G01*
G75*
G02X57570Y306013I-35J17694*
G01*
G75*
G02X55982Y306331I953J8901*
G01*
G75*
G02X54636Y306886I2000J6755*
G01*
G75*
G02X53447Y307702I3220J5967*
G01*
G75*
G02X52402Y308854I4025J4703*
G01*
G75*
G02X51652Y310254I5490J3843*
G01*
G75*
G02X51134Y312061I9276J3633*
G01*
G75*
G02X50792Y314481I27384J5106*
G01*
X50702Y315419*
X59641*
G75*
G03X66253Y315432I-15J1639859*
G01*
G75*
G03X68185Y315526I-87J21869*
G01*
G75*
G03X69135Y315792I-253J2728*
G01*
G75*
G03X69709Y316354I-561J1149*
G01*
G75*
G03X69915Y317171I-1635J844*
G01*
G75*
G03X69892Y319074I-35334J527*
G01*
G75*
G03X69745Y321069I-28816J-1119*
G01*
G75*
G03X69465Y322619I-11188J-1217*
G01*
G75*
G03X68861Y324422I-12290J-3116*
G01*
G75*
G03X68002Y326080I-10854J-4570*
G01*
G75*
G03X66937Y327510I-9128J-5687*
G01*
G75*
G03X65717Y328635I-6071J-5361*
G01*
G75*
G03X64870Y329206I-6272J-8387*
G01*
G75*
G03X63907Y329740I-7350J-12128*
G01*
G75*
G03X62926Y330187I-6150J-12205*
G01*
G75*
G03X62031Y330494I-3095J-7565*
G01*
G75*
G03X61062Y330664I-1346J-4824*
G01*
G75*
G03X59080Y330785I-5122J-67688*
G01*
G75*
G03X57096Y330846I-2996J-64707*
G01*
G75*
G03X56041Y330771I-95J-6104*
G01*
X59789Y326892D02*
G75*
G02X60809Y326612I-1873J-8836D01*
G01*
G75*
G02X61683Y326237I-1898J-5620*
G01*
G75*
G02X62431Y325753I-2409J-4553*
G01*
G75*
G02X63078Y325152I-3029J-3905*
G01*
G75*
G02X63860Y324070I-4663J-4193*
G01*
G75*
G02X64456Y322773I-7083J-4043*
G01*
G75*
G02X64834Y321347I-8187J-2931*
G01*
G75*
G02X64964Y319881I-8498J-1492*
G01*
X64967Y319019*
X50745*
X50819Y319656*
G75*
G02X51803Y323092I10893J-1262*
G01*
G75*
G02X53784Y325606I6493J-3078*
G01*
G75*
G02X56553Y326907I4045J-5015*
G01*
G75*
G02X59789Y326892I1582J-7824*
G01*
X86788Y330607D02*
G75*
G03X85762Y330119I1903J-5317D01*
G01*
G75*
G03X84702Y329372I4931J-8128*
G01*
G75*
G03X83645Y328400I7322J-9024*
G01*
G75*
G03X82627Y327230I11381J-10931*
G01*
X81691Y326042*
X81653Y328043*
G75*
G03X81580Y329703I-33774J-658*
G01*
G75*
G03X81349Y330261I-949J-65*
G01*
G75*
G03X80845Y330515I-561J-487*
G01*
G75*
G03X79458Y330569I-1391J-17915*
G01*
G75*
G03X78705Y330557I6J-24384*
G01*
G75*
G03X78196Y330517I168J-5430*
G01*
G75*
G03X77839Y330447I326J-2603*
G01*
G75*
G03X77600Y330335I200J-739*
G01*
X77267Y330102*
Y316479*
G75*
G03X77273Y308293I5329956J8*
G01*
G75*
G03X77305Y304956I204063J306*
G01*
G75*
G03X77356Y302973I130596J2328*
G01*
G75*
G03X77514Y302650I439J15*
G01*
G75*
G03X78034Y302441I584J702*
G01*
G75*
G03X79479Y302378I1865J26505*
G01*
G75*
G03X80917Y302402I354J22611*
G01*
G75*
G03X81600Y302585I-79J1658*
G01*
X82067Y302826*
Y320499*
X82998Y321891*
G75*
G02X83951Y323198I16454J-11004*
G01*
G75*
G02X84974Y324371I13340J-10598*
G01*
G75*
G02X85957Y325304I9997J-9552*
G01*
G75*
G02X86770Y325839I2485J-2891*
G01*
G75*
G02X87586Y326164I2553J-5228*
G01*
G75*
G02X88328Y326302I952J-3047*
G01*
G75*
G02X89119Y326267I239J-3587*
G01*
G75*
G02X90091Y326059I-1361J-8711*
G01*
G75*
G03X91737Y325656I8272J30207*
G01*
G75*
G03X92306Y325763I157J727*
G01*
G75*
G03X92591Y326238I-356J537*
G01*
G75*
G03X92685Y327779I-22439J2138*
G01*
G75*
G03X92682Y329087I-23252J612*
G01*
G75*
G03X92546Y329734I-1866J-56*
G01*
G75*
G03X92220Y330140I-843J-343*
G01*
G75*
G03X91589Y330473I-1709J-2474*
G01*
G75*
G03X90580Y330726I-1545J-4020*
G01*
G75*
G03X89157Y330835I-1834J-14651*
G01*
G75*
G03X87744Y330807I-414J-14769*
G01*
G75*
G03X86788Y330607I241J-3541*
G01*
X133911Y342848D02*
G75*
G03X129738Y341833I2470J-19234D01*
G01*
G75*
G03X126060Y339946I5710J-15660*
G01*
G75*
G03X123033Y337261I8966J-13154*
G01*
G75*
G03X120775Y333894I12080J-10544*
G01*
G75*
G03X119915Y331808I13835J-6924*
G01*
G75*
G03X119184Y329217I29538J-9728*
G01*
G75*
G03X118680Y326569I30303J-7140*
G01*
G75*
G03X118517Y324310I15483J-2258*
G01*
Y323519*
X110739*
X110272Y323126*
G75*
G03X109852Y322699I2064J-2450*
G01*
G75*
G03X109574Y322246I1555J-1269*
G01*
G75*
G03X109418Y321724I1941J-863*
G01*
G75*
G03X109367Y321089I3882J-630*
G01*
G75*
G03X109426Y320469I3320J4*
G01*
G75*
G03X109603Y319966I1775J340*
G01*
G75*
G03X109923Y319524I1692J891*
G01*
G75*
G03X110420Y319091I2890J2811*
G01*
X110925Y318719*
X118472*
X118491Y317169*
G75*
G03X118822Y313594I22437J275*
G01*
G75*
G03X119719Y310148I21381J3722*
G01*
G75*
G03X121112Y307048I18714J6547*
G01*
G75*
G03X122923Y304502I12417J6917*
G01*
G75*
G03X125004Y302502I14084J12569*
G01*
G75*
G03X127283Y300935I10121J12282*
G01*
G75*
G03X129857Y299753I8265J14600*
G01*
G75*
G03X132819Y298899I7973J22104*
G01*
G75*
G02X133344Y298783I-18589J-85239*
G01*
G75*
G02X133790Y298680I-10106J-44889*
G01*
G75*
G02X134184Y298587I-57045J-242842*
G01*
G75*
G02X134208Y298572I-11J-44*
G01*
G75*
G02X134222Y298547I-53J-45*
G01*
G75*
G02X134321Y298201I-244461J-70352*
G01*
G75*
G02X134431Y297809I-50891J-14518*
G01*
G75*
G02X134558Y297349I-95478J-26547*
G01*
G75*
G03X135679Y294798I9114J2482*
G01*
G75*
G03X137465Y292784I6982J4396*
G01*
G75*
G03X139982Y291294I6304J7779*
G01*
G75*
G03X143267Y290291I7115J17409*
G01*
G75*
G03X144612Y290085I2586J12426*
G01*
G75*
G03X146518Y289937I4655J47460*
G01*
G75*
G03X148458Y289865I2753J47719*
G01*
G75*
G03X149941Y289906I283J16633*
G01*
G75*
G03X151140Y290064I-732J10135*
G01*
G75*
G03X151939Y290359I-500J2580*
G01*
G75*
G03X152499Y290850I-918J1614*
G01*
G75*
G03X152935Y291607I-2741J2084*
G01*
G75*
G03X153168Y292752I-2777J1160*
G01*
G75*
G03X153193Y301083I-2112195J10454*
G01*
G75*
G03X153188Y309494I-2549702J2654*
G01*
G75*
G03X152955Y310439I-2050J-5*
G01*
G75*
G03X152669Y310869I-2167J-1133*
G01*
G75*
G03X152268Y311282I-2901J-2409*
G01*
G75*
G03X151794Y311643I-2650J-2991*
G01*
G75*
G03X151291Y311912I-1848J-2847*
G01*
G75*
G03X150441Y312130I-1114J-2581*
G01*
G75*
G03X148809Y312236I-2690J-28611*
G01*
G75*
G03X147008Y312245I-1035J-28031*
G01*
G75*
G03X145394Y312129I502J-18308*
G01*
G75*
G03X141316Y311220I2331J-20062*
G01*
G75*
G03X138054Y309543I3845J-11485*
G01*
G75*
G03X135734Y307157I5695J-7861*
G01*
G75*
G03X134407Y304169I7484J-5112*
G01*
G75*
G02X134328Y303849I-37650J9104*
G01*
G75*
G02X134257Y303572I-21495J5379*
G01*
G75*
G02X134194Y303334I-48865J12817*
G01*
G75*
G02X134177Y303296I-130J35*
G01*
G75*
G02X134025Y303239I-114J74*
G01*
G75*
G02X132894Y303570I22941J80400*
G01*
G75*
G02X131760Y303939I7857J26095*
G01*
G75*
G02X130809Y304308I4835J13856*
G01*
G75*
G02X128063Y305888I5374J12522*
G01*
G75*
G02X125852Y308017I7167J9657*
G01*
G75*
G02X124260Y310626I9293J7460*
G01*
G75*
G02X123335Y313619I11996J5346*
G01*
G75*
G02X123176Y314692I16088J2933*
G01*
G75*
G02X123078Y315835I20276J2315*
G01*
G75*
G02X123047Y316925I18803J1089*
G01*
G75*
G02X123093Y317831I9103J-4*
G01*
X123197Y318869*
X151956*
X152487Y319335*
G75*
G03X153018Y319998I-1609J1833*
G01*
G75*
G03X153318Y320833I-2524J1378*
G01*
G75*
G03X153443Y322074I-6807J1309*
G01*
G75*
G03X153420Y324185I-51212J502*
G01*
G75*
G03X153305Y326251I-42940J-1346*
G01*
G75*
G03X153097Y327963I-20846J-1661*
G01*
G75*
G03X152763Y329556I-18001J-2943*
G01*
G75*
G03X152265Y331247I-24304J-6239*
G01*
G75*
G03X150315Y335335I-17433J-5807*
G01*
G75*
G03X147483Y338649I-13315J-8511*
G01*
G75*
G03X143814Y341100I-10772J-12150*
G01*
G75*
G03X139402Y342650I-8926J-18353*
G01*
G75*
G03X138098Y342881I-3072J-13542*
G01*
G75*
G03X136760Y342991I-1867J-14539*
G01*
G75*
G03X135370Y342980I-570J-15731*
G01*
G75*
G03X133911Y342848I1018J-19399*
G01*
X135391Y360170D02*
G75*
G03X134071Y359751I579J-4111D01*
G01*
G75*
G03X132907Y358909I2191J-4257*
G01*
G75*
G03X132025Y357742I3490J-3554*
G01*
G75*
G03X131526Y356375I4274J-2333*
G01*
X131331Y355409*
X129986Y355007*
G75*
G03X128279Y354456I11711J-39191*
G01*
G75*
G03X126677Y353854I11110J-31999*
G01*
G75*
G03X125081Y353161I13188J-32570*
G01*
G75*
G03X123389Y352335I20202J-43554*
G01*
X121138Y351181*
X120492Y351674*
G75*
G03X119424Y352264I-2535J-3324*
G01*
G75*
G03X118182Y352555I-1747J-4663*
G01*
G75*
G03X116915Y352520I-499J-4884*
G01*
G75*
G03X115777Y352155I612J-3863*
G01*
G75*
G03X115340Y351858I893J-1785*
G01*
G75*
G03X114216Y350835I57368J-64170*
G01*
G75*
G03X112794Y349488I58448J-63119*
G01*
G75*
G03X111037Y347765I148006J-152706*
G01*
G75*
G03X108006Y344709I188796J-190295*
G01*
G75*
G03X106798Y343276I9186J-8964*
G01*
G75*
G03X106254Y342176I2985J-2163*
G01*
G75*
G03X106067Y340905I4220J-1272*
G01*
G75*
G03X106088Y340361I6919J-2*
G01*
G75*
G03X106155Y339934I2780J219*
G01*
G75*
G03X106288Y339520I2754J657*
G01*
G75*
G03X106517Y339016I6761J2760*
G01*
G75*
G03X106710Y338652I7429J3715*
G01*
G75*
G03X106918Y338304I6796J3823*
G01*
G75*
G03X107113Y338013I5797J3678*
G01*
G75*
G03X107250Y337858I774J548*
G01*
G75*
G02X107372Y337634I-257J-284*
G01*
G75*
G02X107347Y337348I-590J-93*
G01*
G75*
G02X107135Y336844I-3754J1287*
G01*
G75*
G02X106434Y335472I-144328J72852*
G01*
G75*
G03X105581Y333746I46348J-23962*
G01*
G75*
G03X104884Y332163I30793J-14507*
G01*
G75*
G03X104289Y330596I29392J-12060*
G01*
G75*
G03X103744Y328919I36709J-12844*
G01*
X103272Y327344*
X102456Y327180*
G75*
G03X101296Y326824I1173J-5877*
G01*
G75*
G03X100305Y326255I1843J-4360*
G01*
G75*
G03X99493Y325474I2744J-3667*
G01*
G75*
G03X98863Y324494I4076J-3313*
G01*
X98491Y323744*
Y311444*
X98844Y310733*
G75*
G03X99479Y309783I4016J1996*
G01*
G75*
G03X100400Y308907I5135J4474*
G01*
G75*
G03X101391Y308270I3781J4797*
G01*
G75*
G03X102227Y308069I835J1629*
G01*
G75*
G02X102785Y308004I-1J-2438*
G01*
G75*
G02X103133Y307802I-159J-678*
G01*
G75*
G02X103387Y307387I-879J-822*
G01*
G75*
G02X103653Y306545I-10506J-3783*
G01*
G75*
G03X104125Y305038I20660J5642*
G01*
G75*
G03X104779Y303321I36781J13018*
G01*
G75*
G03X105565Y301510I41037J16743*
G01*
G75*
G03X106440Y299715I42177J19441*
G01*
G75*
G02X107159Y298302I-162579J-83583*
G01*
G75*
G02X107357Y297821I-3134J-1575*
G01*
G75*
G02X107368Y297545I-476J-157*
G01*
G75*
G02X107229Y297315I-439J108*
G01*
G75*
G03X107084Y297153I640J-719*
G01*
G75*
G03X106888Y296859I4987J-3542*
G01*
G75*
G03X106682Y296508I5931J-3717*
G01*
G75*
G03X106495Y296144I6301J-3455*
G01*
G75*
G03X106283Y295648I6194J-2948*
G01*
G75*
G03X106154Y295226I2891J-1110*
G01*
G75*
G03X106088Y294791I3001J-681*
G01*
G75*
G03X106067Y294255I6675J-533*
G01*
G75*
G03X106257Y293008I4164J0*
G01*
G75*
G03X106812Y291911I3589J1126*
G01*
G75*
G03X108040Y290462I10863J7957*
G01*
G75*
G03X111122Y287352I203990J199125*
G01*
G75*
G03X114223Y284312I231955J233509*
G01*
G75*
G03X115511Y283252I7279J7524*
G01*
G75*
G03X116535Y282797I1684J2413*
G01*
G75*
G03X117856Y282652I1274J5541*
G01*
G75*
G03X118427Y282677I-72J8376*
G01*
G75*
G03X118871Y282742I-247J3242*
G01*
G75*
G03X119282Y282864I-616J2826*
G01*
G75*
G03X119745Y283064I-1947J5129*
G01*
G75*
G03X120078Y283239I-3089J6299*
G01*
G75*
G03X120400Y283430I-3317J5947*
G01*
G75*
G03X120669Y283610I-3181J5042*
G01*
G75*
G03X120817Y283742I-530J746*
G01*
G75*
G02X121055Y283851I245J-222*
G01*
G75*
G02X121402Y283794I20J-962*
G01*
G75*
G02X122031Y283528I-2142J-5949*
G01*
G75*
G02X123711Y282700I-102687J-210571*
G01*
G75*
G03X125668Y281801I15478J31103*
G01*
G75*
G03X128046Y280848I26946J63783*
G01*
G75*
G03X130325Y280014I36414J95934*
G01*
G75*
G03X131172Y279869I847J2402*
G01*
G75*
G02X131267Y279821I0J-120*
G01*
G75*
G02X131351Y279673I-513J-388*
G01*
G75*
G02X131423Y279435I-1308J-523*
G01*
G75*
G02X131480Y279101I-4577J-950*
G01*
G75*
G03X131781Y277964I4600J609*
G01*
G75*
G03X132361Y276924I4496J1829*
G01*
G75*
G03X133176Y276059I3902J2858*
G01*
G75*
G03X134166Y275433I2923J3522*
G01*
X134941Y275072*
X141091Y275074*
G75*
G03X145709Y275096I-135J503003*
G01*
G75*
G03X147293Y275224I-107J11235*
G01*
G75*
G03X148268Y275571I-409J2685*
G01*
G75*
G03X149241Y276314I-2659J4494*
G01*
G75*
G03X149788Y276923I-4091J4222*
G01*
G75*
G03X150189Y277549I-3176J2474*
G01*
G75*
G03X150456Y278216I-3315J1714*
G01*
G75*
G03X150602Y278946I-4130J1208*
G01*
X150691Y279748*
X152341Y280248*
G75*
G03X154068Y280820I-10456J34493*
G01*
G75*
G03X155841Y281501I-14508J40406*
G01*
G75*
G03X157590Y282263I-16396J40017*
G01*
G75*
G03X159241Y283076I-15756J34076*
G01*
X161041Y284019*
X161689Y283520*
G75*
G03X162762Y282917I2613J3393*
G01*
G75*
G03X163977Y282634I1620J4202*
G01*
G75*
G03X165236Y282693I414J4593*
G01*
G75*
G03X166441Y283091I-867J4648*
G01*
G75*
G03X167553Y283873I-1874J3844*
G01*
G75*
G03X171225Y287496I-306132J313997*
G01*
G75*
G03X174835Y291145I-289364J289914*
G01*
G75*
G03X175686Y292319I-3547J3464*
G01*
G75*
G03X175865Y292724I-3077J1606*
G01*
G75*
G03X175970Y293109I-2153J793*
G01*
G75*
G03X176022Y293577I-3460J624*
G01*
G75*
G03X176038Y294269I-15587J692*
G01*
G75*
G03X175987Y295189I-8306*
G01*
G75*
G03X175826Y295895I-3201J-357*
G01*
G75*
G03X175517Y296531I-2858J-999*
G01*
G75*
G03X175004Y297227I-5639J-3619*
G01*
X174626Y297675*
X175447Y299159*
G75*
G03X175815Y299854I-19017J10519*
G01*
G75*
G03X176244Y300722I-44453J22505*
G01*
G75*
G03X176665Y301616I-45981J22190*
G01*
G75*
G03X177008Y302394I-25532J11719*
G01*
G75*
G03X177564Y303799I-30226J12783*
G01*
G75*
G03X178177Y305526I-66150J24435*
G01*
G75*
G03X178737Y307211I-123653J42076*
G01*
G75*
G03X178817Y307709I-1533J499*
G01*
G75*
G02X178861Y307794I102*
G01*
G75*
G02X179013Y307875I468J-692*
G01*
G75*
G02X179240Y307947I558J-1365*
G01*
G75*
G02X179529Y308001I767J-3302*
G01*
G75*
G03X180687Y308313I-685J4851*
G01*
G75*
G03X181744Y308899I-1906J4689*
G01*
G75*
G03X182624Y309712I-2906J4023*
G01*
G75*
G03X183257Y310694I-3431J2911*
G01*
X183613Y311444*
X183611Y317594*
G75*
G03X183604Y321444I-1076046J-276*
G01*
G75*
G03X183567Y322962I-37058J-144*
G01*
G75*
G03X183482Y323821I-8104J-365*
G01*
G75*
G03X183305Y324419I-2268J-345*
G01*
G75*
G03X182685Y325407I-3911J-1766*
G01*
G75*
G03X181788Y326257I-4104J-3434*
G01*
G75*
G03X180722Y326876I-3196J-4270*
G01*
G75*
G03X179604Y327190I-1688J-3872*
G01*
G75*
G02X179256Y327249I689J5077*
G01*
G75*
G02X179013Y327323I289J1391*
G01*
G75*
G02X178865Y327408I231J574*
G01*
G75*
G02X178817Y327507I77J98*
G01*
G75*
G03X178796Y327654I-530J0*
G01*
G75*
G03X178624Y328239I-67037J-19338*
G01*
G75*
G03X178413Y328928I-40759J-12130*
G01*
G75*
G03X178162Y329706I-66684J-21090*
G01*
G75*
G03X177548Y331418I-32698J-10763*
G01*
G75*
G03X176787Y333263I-46412J-18046*
G01*
G75*
G03X175983Y335011I-43309J-18869*
G01*
G75*
G03X175236Y336420I-20112J-9759*
G01*
X174615Y337498*
X174998Y337954*
G75*
G03X175514Y338654I-5213J4385*
G01*
G75*
G03X175825Y339290I-2548J1640*
G01*
G75*
G03X175987Y339997I-3031J1064*
G01*
G75*
G03X176038Y340919I-8258J921*
G01*
G75*
G03X176022Y341610I-15594J0*
G01*
G75*
G03X175970Y342078I-3512J-156*
G01*
G75*
G03X175865Y342463I-2258J-407*
G01*
G75*
G03X175686Y342869I-3259J-1200*
G01*
G75*
G03X175366Y343332I-2019J-1051*
G01*
G75*
G03X174354Y344444I-57585J-51389*
G01*
G75*
G03X173007Y345863I-61493J-57039*
G01*
G75*
G03X171263Y347637I-155075J-150715*
G01*
G75*
G03X168142Y350729I-211220J-210089*
G01*
G75*
G03X166770Y351873I-7953J-8146*
G01*
G75*
G03X165686Y352373I-1891J-2670*
G01*
G75*
G03X164341Y352539I-1325J-5202*
G01*
G75*
G03X163661Y352520I56J-13708*
G01*
G75*
G03X163215Y352459I147J-2773*
G01*
G75*
G03X162826Y352334I454J-2074*
G01*
G75*
G03X162357Y352105I2219J-5132*
G01*
G75*
G03X162040Y351921I3871J-7062*
G01*
G75*
G03X161735Y351726I3999J-6563*
G01*
G75*
G03X161479Y351544I3807J-5627*
G01*
G75*
G03X161340Y351417I578J-775*
G01*
G75*
G02X161112Y351322I-216J196*
G01*
G75*
G02X160754Y351394I50J1171*
G01*
G75*
G02X160111Y351671I2381J6424*
G01*
G75*
G02X158517Y352465I88196J179133*
G01*
G75*
G03X156732Y353298I-15060J-29928*
G01*
G75*
G03X154703Y354123I-20310J-47043*
G01*
G75*
G03X152652Y354856I-18111J-47430*
G01*
G75*
G03X150804Y355409I-9908J-29718*
G01*
G75*
G02X150727Y355471I31J119*
G01*
G75*
G02X150667Y355622I665J349*
G01*
G75*
G02X150628Y355836I1240J339*
G01*
G75*
G02X150615Y356102I2796J270*
G01*
G75*
G03X150408Y357143I-2757J-7*
G01*
G75*
G03X149798Y358224I-4653J-1913*
G01*
G75*
G03X148901Y359178I-4484J-3317*
G01*
G75*
G03X147841Y359849I-3024J-3603*
G01*
G75*
G03X147218Y360052I-1183J-2579*
G01*
G75*
G03X146451Y360151I-1080J-5339*
G01*
G75*
G03X145118Y360194I-1526J-26689*
G01*
G75*
G03X141467Y360213I-7064J-991446*
G01*
G75*
G03X139278Y360217I-1828J-509648*
G01*
G75*
G03X137361Y360209I213J-300090*
G01*
G75*
G03X135723Y360195I4320J-594066*
G01*
G75*
G03X135391Y360170I25J-2562*
G01*
X139005Y337982D02*
G75*
G02X142581Y336493I-2954J-12135D01*
G01*
G75*
G02X145569Y333968I-6779J-11051*
G01*
G75*
G02X147669Y330665I-9780J-8539*
G01*
G75*
G02X148667Y326914I-11504J-5069*
G01*
G75*
G02X148722Y326321I-25267J-2648*
G01*
G75*
G02X148770Y325671I-36238J-2983*
G01*
G75*
G02X148803Y325061I-33591J-2128*
G01*
G75*
G02X148814Y324606I-10654J-486*
G01*
X148817Y323669*
X123279*
X123357Y325806*
G75*
G02X123478Y327519I25172J-921*
G01*
G75*
G02X123711Y328854I9852J-1035*
G01*
G75*
G02X124113Y330085I8582J-2117*
G01*
G75*
G02X124751Y331463I15417J-6302*
G01*
G75*
G02X126436Y333943I11365J-5910*
G01*
G75*
G02X128648Y335957I9587J-8307*
G01*
G75*
G02X131278Y337403I7430J-10400*
G01*
G75*
G02X134197Y338212I4977J-12280*
G01*
G75*
G02X135240Y338303I1183J-7543*
G01*
G75*
G02X136579Y338284I380J-20144*
G01*
G75*
G02X137927Y338174I-976J-20309*
G01*
G75*
G02X139005Y337982I-1004J-8749*
G01*
X140919Y305631D02*
G75*
G02X141144Y305329I-673J-737D01*
G01*
G75*
G02X141463Y304620I-12971J-6264*
G01*
G75*
G02X141868Y303586I-22317J-9333*
G01*
G75*
G02X142408Y302069I-96513J-35247*
G01*
G75*
G02X142851Y300790I-572348J-198898*
G01*
G75*
G02X143255Y299615I-407745J-140853*
G01*
G75*
G02X143591Y298629I-451702J-154244*
G01*
G75*
G02X143716Y298244I-14929J-5078*
G01*
G75*
G03X143860Y297833I5659J1757*
G01*
G75*
G03X144001Y297559I1454J574*
G01*
G75*
G03X144128Y297428I390J251*
G01*
G75*
G03X144235Y297438I48J69*
G01*
G75*
G03X144279Y297506I-133J133*
G01*
G75*
G03X144689Y298633I-1112885J405819*
G01*
G75*
G03X145147Y299906I-191687J69614*
G01*
G75*
G03X145676Y301403I-363138J129306*
G01*
G75*
G02X146782Y304436I129370J-45435*
G01*
G75*
G02X147387Y305559I4501J-1702*
G01*
G75*
G02X148003Y305905I684J-496*
G01*
G75*
G02X148822Y305741I123J-1510*
G01*
G75*
G02X149266Y305197I-406J-786*
G01*
G75*
G02X149291Y304350I-1663J-472*
G01*
G75*
G02X148819Y302776I-10998J2441*
G01*
G75*
G02X147291Y298844I-316753J120817*
G01*
G75*
G02X146167Y296096I-121487J48087*
G01*
G75*
G02X145524Y294893I-6891J2909*
G01*
G75*
G02X144928Y294324I-1532J1009*
G01*
G75*
G02X144180Y294119I-748J1261*
G01*
G75*
G02X143439Y294313I0J1509*
G01*
G75*
G02X142872Y294850I790J1401*
G01*
G75*
G02X142259Y296028I6391J4074*
G01*
G75*
G02X141044Y299038I179635J74291*
G01*
G75*
G02X139467Y303091I472133J186068*
G01*
G75*
G02X139035Y304496I9986J3836*
G01*
G75*
G02X139065Y305234I1346J315*
G01*
G75*
G02X139481Y305734I832J-269*
G01*
G75*
G02X139894Y305906I1049J-1934*
G01*
G75*
G02X140259Y305947I293J-969*
G01*
G75*
G02X140594Y305855I-63J-885*
G01*
G75*
G02X140919Y305631I-646J-1283*
G01*
X146117Y351943D02*
G75*
G02X152264Y350431I-5385J-35153D01*
G01*
G75*
G02X158057Y347852I-11605J-33856*
G01*
G75*
G02X163246Y344322I-17036J-30625*
G01*
G75*
G02X167602Y339991I-20424J-24897*
G01*
G75*
G02X170477Y336011I-28126J-23346*
G01*
G75*
G02X172759Y331722I-29733J-18572*
G01*
G75*
G02X174425Y327162I-31979J-14265*
G01*
G75*
G02X175463Y322372I-34941J-10081*
G01*
G75*
G02X175667Y320274I-21255J-3125*
G01*
G75*
G02X175731Y317589I-55839J-2678*
G01*
G75*
G02X175666Y314904I-55899J17*
G01*
G75*
G02X175461Y312801I-21622J1044*
G01*
G75*
G02X174791Y309406I-35048J5150*
G01*
G75*
G02X173787Y306048I-36219J9005*
G01*
G75*
G02X172482Y302829I-34579J12138*
G01*
G75*
G02X170915Y299852I-29280J13514*
G01*
G75*
G02X165624Y293058I-29716J17685*
G01*
G75*
G02X158820Y287784I-24407J24461*
G01*
G75*
G02X150895Y284338I-17742J29970*
G01*
G75*
G02X142313Y282920I-10078J34304*
G01*
G75*
G02X134598Y283509I-1373J32814*
G01*
G75*
G02X127055Y285883I6913J35130*
G01*
G75*
G02X120220Y289855I14445J32730*
G01*
G75*
G02X114594Y295153I19463J26303*
G01*
G75*
G02X109944Y302308I27153J22732*
G01*
G75*
G02X107159Y310345I31415J15387*
G01*
G75*
G02X106403Y318792I33980J7301*
G01*
G75*
G02X107718Y327150I34432J-1134*
G01*
G75*
G02X110427Y333868I33487J-9599*
G01*
G75*
G02X114462Y339864I30502J-16172*
G01*
G75*
G02X119656Y344887I26453J-22157*
G01*
G75*
G02X125791Y348730I21428J-27393*
G01*
G75*
G02X128678Y349992I16180J-33056*
G01*
G75*
G02X131611Y350979I12385J-31969*
G01*
G75*
G02X134635Y351701I9539J-33255*
G01*
G75*
G02X137791Y352171I7235J-37748*
G01*
G75*
G02X139427Y352261I1696J-15894*
G01*
G75*
G02X141911Y352231I294J-79724*
G01*
G75*
G02X144407Y352124I-2164J-79030*
G01*
G75*
G02X146117Y351943I-1088J-18467*
G01*
X154367Y307919D02*
Y303269D01*
X157929*
G75*
G03X159944Y303278I-1J234746*
G01*
G75*
G03X160960Y303315I-164J18275*
G01*
G75*
G03X161583Y303390I-362J5643*
G01*
G75*
G03X162006Y303531I-264J1486*
G01*
G75*
G03X162494Y303857I-1144J2244*
G01*
G75*
G03X162844Y304263I-1137J1335*
G01*
G75*
G03X163066Y304770I-1608J1006*
G01*
G75*
G03X163174Y305400I-3212J876*
G01*
G75*
G03X163152Y306080I-3197J236*
G01*
G75*
G03X162981Y306667I-2106J-295*
G01*
G75*
G03X162657Y307165I-1807J-822*
G01*
G75*
G03X162181Y307578I-1856J-1656*
G01*
G75*
G03X161762Y307776I-863J-1293*
G01*
G75*
G03X161245Y307872I-722J-2428*
G01*
G75*
G03X160356Y307911I-961J-11762*
G01*
G75*
G03X158019Y307919I-2389J-381350*
G01*
X154367*
X154436Y298434D02*
G75*
G03X154406Y298283I424J-163D01*
G01*
G75*
G03X154393Y297653I59003J-1569*
G01*
G75*
G03X154389Y296907I36265J-545*
G01*
G75*
G03X154400Y296062I59897J302*
G01*
X154441Y293894*
X157876Y293853*
G75*
G03X159979Y293837I3191J272054*
G01*
G75*
G03X160895Y293865I50J13000*
G01*
G75*
G03X161463Y293950I-231J3482*
G01*
G75*
G03X161954Y294125I-546J2314*
G01*
G75*
G03X162278Y294310I-1192J2459*
G01*
G75*
G03X162528Y294517I-874J1313*
G01*
G75*
G03X162735Y294774I-1168J1149*
G01*
G75*
G03X162926Y295113I-2625J1700*
G01*
G75*
G03X163182Y295970I-2520J1221*
G01*
G75*
G03X163129Y296807I-2169J284*
G01*
G75*
G03X162763Y297576I-2193J-574*
G01*
G75*
G03X162109Y298234I-2542J-1870*
G01*
G75*
G03X161744Y298411I-643J-860*
G01*
G75*
G03X161219Y298504I-799J-2986*
G01*
G75*
G03X160300Y298554I-1187J-13339*
G01*
G75*
G03X158105Y298591I-6409J-318411*
G01*
G75*
G03X156201Y298608I-3068J-232538*
G01*
G75*
G03X155198Y298589I-106J-21028*
G01*
G75*
G03X154581Y298545I460J-10676*
G01*
G75*
G03X154436Y298434I17J-173*
G01*
D02*
D112*
X62750Y115250D02*
X65250Y117750D01*
Y122750*
X62750Y125250*
X57750*
X55250Y122750*
Y117750*
X57750Y115250*
X62750*
X65250Y122750D02*
X67750Y125250D01*
X72750*
X75250Y122750*
Y117750*
X72750Y115250*
X67750*
X65250Y117750*
X87750Y85250D02*
X102750D01*
X87750Y95250D02*
X102750D01*
X87750Y105250D02*
X102750D01*
X87750Y115250D02*
X102750D01*
X87750Y125250D02*
X102750D01*
X87750Y135250D02*
X102750D01*
X87750Y145250D02*
X102750D01*
X87750Y155250D02*
X102750D01*
X87750Y165250D02*
X102750D01*
X87750Y175250D02*
X102750D01*
X87750Y185250D02*
X102750D01*
X87750Y195250D02*
X85250Y192750D01*
Y187750*
X87750Y185250*
X85250Y182750*
Y177750*
X87750Y175250*
X85250Y172750*
Y167750*
X87750Y165250*
X85250Y162750*
Y157750*
X87750Y155250*
X85250Y152750*
Y147750*
X87750Y145250*
X85250Y142750*
Y137750*
X87750Y135250*
X85250Y132750*
Y127750*
X87750Y125250*
X85250Y122750*
Y117750*
X87750Y115250*
X85250Y112750*
Y107750*
X87750Y105250*
X85250Y102750*
Y97750*
X87750Y95250*
X85250Y92750*
Y87750*
X87750Y85250*
X85250Y82750*
Y77750*
X87750Y75250*
X102750*
X105250Y77750*
Y82750*
X102750Y85250*
X105250Y87750*
Y92750*
X102750Y95250*
X105250Y97750*
Y102750*
X102750Y105250*
X105250Y107750*
Y112750*
X102750Y115250*
X105250Y117750*
Y122750*
X102750Y125250*
X105250Y127750*
Y132750*
X102750Y135250*
X105250Y137750*
Y142750*
X102750Y145250*
X105250Y147750*
Y152750*
X102750Y155250*
X105250Y157750*
Y162750*
X102750Y165250*
X105250Y167750*
Y172750*
X102750Y175250*
X105250Y177750*
Y182750*
X102750Y185250*
X105250Y187750*
Y192750*
X102750Y195250*
X87750*
X85250Y197750*
Y202750*
X87750Y205250*
X102750*
X105250Y202750*
Y197750*
X102750Y195250*
X205250Y302750D02*
Y287750D01*
X215250Y302750D02*
Y287750D01*
X225250Y32750D02*
Y17750D01*
Y302750D02*
Y287750D01*
X235250Y32750D02*
Y17750D01*
Y302750D02*
Y287750D01*
X245250Y32750D02*
Y17750D01*
Y302750D02*
Y287750D01*
X255250Y32750D02*
Y17750D01*
Y302750D02*
Y287750D01*
X265250Y32750D02*
Y17750D01*
Y287750D02*
X262750Y285250D01*
X257750*
X255250Y287750*
X252750Y285250*
X247750*
X245250Y287750*
X242750Y285250*
X237750*
X235250Y287750*
X232750Y285250*
X227750*
X225250Y287750*
X222750Y285250*
X217750*
X215250Y287750*
X212750Y285250*
X207750*
X205250Y287750*
X202750Y285250*
X197750*
X195250Y287750*
Y302750*
X197750Y305250*
X202750*
X205250Y302750*
X207750Y305250*
X212750*
X215250Y302750*
X217750Y305250*
X222750*
X225250Y302750*
X227750Y305250*
X232750*
X235250Y302750*
X237750Y305250*
X242750*
X245250Y302750*
X247750Y305250*
X252750*
X255250Y302750*
X257750Y305250*
X262750*
X265250Y302750*
Y287750*
X267750Y285250*
X272750*
X275250Y287750*
Y302750*
X272750Y305250*
X267750*
X265250Y302750*
X275250Y17750D02*
X272750Y15250D01*
X267750*
X265250Y17750*
X262750Y15250*
X257750*
X255250Y17750*
X252750Y15250*
X247750*
X245250Y17750*
X242750Y15250*
X237750*
X235250Y17750*
X232750Y15250*
X227750*
X225250Y17750*
X222750Y15250*
X217750*
X215250Y17750*
Y32750*
X217750Y35250*
X222750*
X225250Y32750*
X227750Y35250*
X232750*
X235250Y32750*
X237750Y35250*
X242750*
X245250Y32750*
X247750Y35250*
X252750*
X255250Y32750*
X257750Y35250*
X262750*
X265250Y32750*
X267750Y35250*
X272750*
X275250Y32750*
Y17750*
X277750Y15250*
X282750*
X285250Y17750*
Y32750*
X282750Y35250*
X277750*
X275250Y32750*
X277750Y185250D02*
X292750D01*
X277750Y195250D02*
X292750D01*
X277750Y205250D02*
X292750D01*
Y215250D02*
X295250Y212750D01*
Y207750*
X292750Y205250*
X295250Y202750*
Y197750*
X292750Y195250*
X295250Y192750*
Y187750*
X292750Y185250*
X295250Y182750*
Y177750*
X292750Y175250*
X277750*
X275250Y177750*
Y182750*
X277750Y185250*
X275250Y187750*
Y192750*
X277750Y195250*
X275250Y197750*
Y202750*
X277750Y205250*
X275250Y207750*
Y212750*
X277750Y215250*
X292750*
X295250Y217750*
Y222750*
X292750Y225250*
X277750*
X275250Y222750*
Y217750*
X277750Y215250*
X0Y0D02*
M02*
