G04 EasyPC Gerber Version 21.0.3 Build 4286 *
%FSLAX35Y35*%
%MOIN*%
%AMT117*0 Octagon Pad at angle 0*4,1,8,-0.01243,-0.03000,0.01243,-0.03000,0.03000,-0.01243,0.03000,0.01243,0.01243,0.03000,-0.01243,0.03000,-0.03000,0.01243,-0.03000,-0.01243,-0.01243,-0.03000,0*%
%ADD117T117*%
%ADD116O,0.06000X0.12000*%
%ADD26R,0.03937X0.05709*%
%ADD119R,0.05906X0.05906*%
%ADD24R,0.06496X0.06496*%
%ADD120R,0.09449X0.09449*%
%ADD13C,0.00500*%
%ADD14C,0.01000*%
%ADD73C,0.01500*%
%ADD15C,0.01575*%
%ADD76C,0.03150*%
%ADD123C,0.04724*%
%ADD72C,0.04800*%
%ADD122C,0.05000*%
%ADD121C,0.05600*%
%ADD74C,0.05906*%
%ADD25C,0.06496*%
%ADD20C,0.09449*%
%ADD118R,0.04921X0.01969*%
%ADD114R,0.04331X0.03150*%
%ADD28R,0.04724X0.04134*%
%ADD115R,0.10630X0.04724*%
%ADD113C,0.31496*%
X0Y0D02*
D02*
D13*
X309108Y173557D02*
Y147967D01*
X326008*
Y173075*
X332730*
Y173557*
X309108*
G36*
Y147967*
X326008*
Y173075*
X332730*
Y173557*
X309108*
G37*
X354492Y118439D02*
X364226D01*
Y132219*
X354492*
Y118439*
G36*
X364226*
Y132219*
X354492*
Y118439*
G37*
D02*
D14*
X311702Y152528D02*
X310287Y151114D01*
X311702Y155216D02*
X310287Y156630D01*
X311702Y160402D02*
X310287Y158988D01*
X311702Y163090D02*
X310287Y164504D01*
X311702Y168276D02*
X310287Y166862D01*
X311702Y170964D02*
X310287Y172378D01*
X314389Y152528D02*
X315803Y151114D01*
X314389Y155216D02*
X315803Y156630D01*
X314389Y160402D02*
X315803Y158988D01*
X314389Y163090D02*
X315803Y164504D01*
X314389Y168276D02*
X315803Y166862D01*
X314389Y170964D02*
X315803Y172378D01*
X327758Y150250D02*
X325758D01*
X327758Y155250D02*
X325758D01*
X327758Y160250D02*
X325758D01*
X327758Y165250D02*
X325758D01*
X327758Y170250D02*
X325758D01*
X352742Y120250D02*
X354742D01*
X352742Y125250D02*
X354742D01*
X352742Y130250D02*
X354742D01*
X358946Y121032D02*
X357531Y119618D01*
X358946Y123720D02*
X357531Y125134D01*
X358946Y126938D02*
X357531Y125524D01*
X358946Y129625D02*
X357531Y131039D01*
X361633Y121032D02*
X363047Y119618D01*
X361633Y123720D02*
X363047Y125134D01*
X361633Y126938D02*
X363047Y125524D01*
X361633Y129625D02*
X363047Y131039D01*
D02*
D15*
X215329Y59974D02*
Y51510D01*
X329423Y115250D02*
X316982D01*
X351077Y70250D02*
X342770D01*
X351077Y155250D02*
X360289D01*
D02*
D20*
X202809Y366470D03*
X222494D03*
X242179D03*
X425250Y75132D03*
Y94817D03*
Y114502D03*
Y153872D03*
Y173557D03*
Y193242D03*
Y232612D03*
Y252297D03*
Y271982D03*
Y311352D03*
Y331037D03*
Y350722D03*
D02*
D24*
X384108Y67179D03*
D02*
D25*
Y77179D03*
D02*
D26*
X86274Y20014D03*
X93754D03*
X147888D03*
X155368D03*
X321313Y15250D03*
X328793D03*
D02*
D28*
X67179Y20014D03*
X74659D03*
X126234D03*
X133715D03*
X306510Y15250D03*
X313990D03*
D02*
D72*
X58518Y20014D03*
X118163D03*
X225171Y73163D03*
X240250Y83715D03*
X271707Y161746D03*
X279423Y140093D03*
X279581Y244423D03*
X287455Y100250D03*
Y165683D03*
X299266Y15250D03*
X300250Y90250D03*
X303203Y125250D03*
Y134187D03*
Y232612D03*
X303400Y108518D03*
X307140Y75250D03*
X310250Y70250D03*
X311077Y136156D03*
X315250Y55250D03*
Y80250D03*
X319148Y140250D03*
X329423Y199148D03*
X342573Y29856D03*
X342770Y15998D03*
X358518Y49463D03*
X360289Y60250D03*
Y69226D03*
X362258Y100250D03*
Y140250D03*
X364423Y170250D03*
X365250Y90250D03*
X370132Y212927D03*
X372100Y150250D03*
X374069Y252297D03*
X376037Y181431D03*
X378006Y193242D03*
X387848Y123124D03*
X395722Y124344D03*
D02*
D73*
X23518Y80250D02*
X25644D01*
X32730Y73163*
X84699*
X91785Y80250*
X90250*
X23518Y90250D02*
X24699D01*
X29581Y85368*
X84974*
X89856Y90250*
X90250*
X23518Y120250D02*
X26274D01*
X31549Y125526*
X51234*
X53990Y128281*
X82219*
X90250Y120250*
X23518Y130250D02*
X26431D01*
X31549Y135368*
X84344*
X89463Y130250*
X90250*
X23518Y140250D02*
X26352D01*
X31549Y145447*
X84502*
X89699Y140250*
X90250*
X23518Y150250D02*
X26352D01*
X31549Y155447*
X84659*
X89856Y150250*
X90250*
X23518Y160250D02*
X26510D01*
X31549Y165289*
X84817*
X89856Y160250*
X90250*
X23518Y170250D02*
X24699D01*
X29581Y175132*
X84974*
X89856Y170250*
X90250*
X23518Y180250D02*
X26431D01*
X31549Y185368*
X85132*
X90250Y180250*
X67179Y20014D02*
X58518D01*
X74659D02*
X86274D01*
X90250Y100250D02*
Y100722D01*
X45329*
X40526Y105526*
X30132*
X24856Y100250*
X23518*
X90250Y110250D02*
X49187D01*
X44148Y115289*
X29581*
X24541Y109463*
X23518*
Y110250*
X90250Y200250D02*
X89502D01*
X126234Y20014D02*
X118163D01*
X133715D02*
X147888D01*
X155368D02*
X200841D01*
X210683Y29856*
X219856*
X220250Y30250*
X210250Y300250D02*
Y354226D01*
X222494Y366470*
X215329Y67455D02*
X208990D01*
X205250Y63715*
Y45250*
X220250Y30250*
X225171Y59974D02*
X279974D01*
X310250Y90250*
X329423*
X225171Y63715D02*
X273715D01*
X300250Y90250*
X225171Y67455D02*
Y73163D01*
X242179Y366470D02*
Y348754D01*
X277612Y313321*
Y277888*
X273675Y273951*
X264187*
X260250Y277888*
Y290250*
X279581Y244423D02*
X346510Y311352D01*
X425250*
X280250Y20250D02*
X283203D01*
X293360Y10093*
X348478*
X374069Y35683*
Y74344*
X368163Y80250*
X351077*
X287455Y100250D02*
X329423D01*
X303203Y125250D02*
X329423D01*
X303203Y232612D02*
X385880D01*
X425250Y271982*
X306510Y15250D02*
X299266D01*
X307140Y75250D02*
X329423D01*
X321313Y15250D02*
X313990D01*
X329423Y55250D02*
X315250D01*
X329423Y60250D02*
X320250D01*
X315250Y55250*
X329423Y65250D02*
X313006D01*
X305171Y57415*
Y39699*
X315014Y29856*
X342573*
X329423Y70250D02*
X310250D01*
X329423Y80250D02*
X315250D01*
X329423Y85250D02*
X309384D01*
X297297Y73163*
Y37730*
X311077Y23951*
X332022*
X328793Y20722*
Y15250*
X329423Y95250D02*
X295250D01*
X283715Y83715*
X240250*
X329423Y105250D02*
X306667D01*
X303400Y108518*
X329423Y105250D02*
X351077D01*
X329423Y110250D02*
X311077D01*
X304856Y116470*
X293360*
X271707Y138124*
Y161746*
X329423Y120250D02*
X299266D01*
X279423Y140093*
X329423Y130250D02*
X307140D01*
X303203Y134187*
X329423Y135250D02*
X311982D01*
X311077Y136156*
X329423Y140250D02*
X319148D01*
X329423Y145250D02*
X296077D01*
X240211Y201116*
Y280644*
X235093Y285762*
Y296195*
X231037Y300250*
X230250*
X329423Y199148D02*
X320919D01*
X287455Y165683*
X351077Y55250D02*
X329423D01*
X351077Y60250D02*
X360289D01*
X351077Y65250D02*
X356313D01*
X360289Y69226*
X351077Y75250D02*
X362140D01*
X368163Y69226*
Y41392*
X342770Y15998*
X351077Y85250D02*
Y84896D01*
X368360*
X413636Y130171*
Y147612*
X419896Y153872*
X425250*
X351077Y95250D02*
X346707D01*
X336707Y105250*
X329423*
X351077Y110250D02*
X381628D01*
X395722Y124344*
X351077Y135250D02*
X386943D01*
X425250Y173557*
X351077Y140250D02*
X362258D01*
X351077Y160250D02*
X395722D01*
X425250Y189778*
Y193242*
X351077Y170250D02*
X364423D01*
X362258Y100250D02*
X351077D01*
X365250Y90250D02*
X351077D01*
X372100Y150250D02*
X351077D01*
X376037Y181431D02*
Y187337D01*
X356352Y207022*
X318951*
X297297Y228675*
X259896*
X250250Y238321*
Y290250*
X387848Y123124D02*
X379974Y115250D01*
X351077*
X425250Y212927D02*
X417376D01*
Y208990*
X380171Y171785*
Y171156*
X374266Y165250*
X351077*
X425250Y232612D02*
X419344D01*
X403596Y216864*
Y208990*
X387848Y193242*
X378006*
X425250Y252297D02*
X385880Y212927D01*
X370132*
X425250Y291667D02*
X413439D01*
X374069Y252297*
D02*
D74*
X23518Y80250D03*
Y90250D03*
Y100250D03*
Y110250D03*
Y120250D03*
Y130250D03*
Y140250D03*
Y150250D03*
Y160250D03*
Y170250D03*
Y180250D03*
Y190250D03*
Y200250D03*
X33518Y90250D03*
Y100250D03*
Y110250D03*
Y120250D03*
Y130250D03*
Y140250D03*
Y150250D03*
Y160250D03*
Y170250D03*
Y180250D03*
Y190250D03*
Y200250D03*
D02*
D76*
X329423Y50250D02*
X351077D01*
X357730*
X358518Y49463*
D02*
D113*
X27809Y27809D03*
Y362455D03*
X354581D03*
X393951Y27809D03*
D02*
D114*
X329423Y50250D03*
Y55250D03*
Y60250D03*
Y65250D03*
Y70250D03*
Y75250D03*
Y80250D03*
Y85250D03*
Y90250D03*
Y95250D03*
Y100250D03*
Y105250D03*
Y110250D03*
Y115250D03*
Y120250D03*
Y125250D03*
Y130250D03*
Y135250D03*
Y140250D03*
Y145250D03*
Y150250D03*
Y155250D03*
Y160250D03*
Y165250D03*
Y170250D03*
X351077Y50250D03*
Y55250D03*
Y60250D03*
Y65250D03*
Y70250D03*
Y75250D03*
Y80250D03*
Y85250D03*
Y90250D03*
Y95250D03*
Y100250D03*
Y105250D03*
Y110250D03*
Y115250D03*
Y120250D03*
Y125250D03*
Y130250D03*
Y135250D03*
Y140250D03*
Y145250D03*
Y150250D03*
Y155250D03*
Y160250D03*
Y165250D03*
Y170250D03*
D02*
D115*
X329423Y40368D03*
Y180132D03*
X351077Y40368D03*
Y180132D03*
D02*
D116*
X60250Y120250D03*
X70250D03*
D02*
D117*
X90250Y80250D03*
Y90250D03*
Y100250D03*
Y110250D03*
Y120250D03*
Y130250D03*
Y140250D03*
Y150250D03*
Y160250D03*
Y170250D03*
Y180250D03*
Y190250D03*
Y200250D03*
X100250Y80250D03*
Y90250D03*
Y100250D03*
Y110250D03*
Y120250D03*
Y130250D03*
Y140250D03*
Y150250D03*
Y160250D03*
Y170250D03*
Y180250D03*
Y190250D03*
Y200250D03*
X200250Y290250D03*
Y300250D03*
X210250Y290250D03*
Y300250D03*
X220250Y20250D03*
Y30250D03*
Y290250D03*
Y300250D03*
X230250Y20250D03*
Y30250D03*
Y290250D03*
Y300250D03*
X240250Y20250D03*
Y30250D03*
Y290250D03*
Y300250D03*
X250250Y20250D03*
Y30250D03*
Y290250D03*
Y300250D03*
X260250Y20250D03*
Y30250D03*
Y290250D03*
Y300250D03*
X270250Y20250D03*
Y30250D03*
Y290250D03*
Y300250D03*
X280250Y20250D03*
Y30250D03*
Y180250D03*
Y190250D03*
Y200250D03*
Y210250D03*
Y220250D03*
X290250Y180250D03*
Y190250D03*
Y200250D03*
Y210250D03*
Y220250D03*
D02*
D118*
X215329Y59974D03*
Y67455D03*
X225171Y59974D03*
Y63715D03*
Y67455D03*
D02*
D119*
X33518Y80250D03*
D02*
D120*
X261864Y366470D03*
X425250Y55447D03*
Y134187D03*
Y212927D03*
Y291667D03*
D02*
D121*
X101825Y20014D03*
X215329Y51510D03*
X316982Y115250D03*
X342770Y70250D03*
X360289Y155250D03*
D02*
D122*
X93754Y20014D02*
X101825D01*
D02*
D123*
X23518Y190250D02*
X19738D01*
X15801Y194187*
Y207022*
X19738Y210959*
X63045*
X69108Y204896*
Y194187*
X73045Y190250*
X90250*
X0Y0D02*
M02*
