G04 EasyPC Gerber Version 21.0.3 Build 4286 *
%FSLAX35Y35*%
%MOIN*%
%ADD140O,0.08000X0.14000*%
%ADD166R,0.07906X0.07906*%
%ADD108R,0.08496X0.08496*%
%ADD170R,0.11449X0.11449*%
%ADD110C,0.06800*%
%ADD171C,0.07600*%
%ADD167C,0.07906*%
%ADD139C,0.08299*%
%ADD107C,0.08496*%
%ADD100C,0.11449*%
%AMT165*0 Octagon Pad at angle 0*4,1,8,-0.01656,-0.04000,0.01656,-0.04000,0.04000,-0.01656,0.04000,0.01656,0.01656,0.04000,-0.01656,0.04000,-0.04000,0.01656,-0.04000,-0.01656,-0.01656,-0.04000,0*%
%ADD165T165*%
%AMT164*0 Thermal pad*4,1,8,0.03000,0.00500,0.03000,0.01243,0.01243,0.03000,0.00500,0.03000,0.00500,0.04000,0.01656,0.04000,0.04000,0.01656,0.04000,0.00500,0.03000,0.00500,0*4,1,8,-0.00500,0.03000,-0.01243,0.03000,-0.03000,0.01243,-0.03000,0.00500,-0.04000,0.00500,-0.04000,0.01656,-0.01656,0.04000,-0.00500,0.04000,-0.00500,0.03000,0*4,1,8,-0.03000,-0.00500,-0.03000,-0.01243,-0.01243,-0.03000,-0.00500,-0.03000,-0.00500,-0.04000,-0.01656,-0.04000,-0.04000,-0.01656,-0.04000,-0.00500,-0.03000,-0.00500,0*4,1,8,0.00500,-0.03000,0.01243,-0.03000,0.03000,-0.01243,0.03000,-0.00500,0.04000,-0.00500,0.04000,-0.01656,0.01656,-0.04000,0.00500,-0.04000,0.00500,-0.03000,0*%
%ADD164T164*%
%AMT163*0 Octagon Pad at angle 0*4,1,8,-0.01656,-0.04000,0.01656,-0.04000,0.04000,-0.01656,0.04000,0.01656,0.01656,0.04000,-0.01656,0.04000,-0.04000,0.01656,-0.04000,-0.01656,-0.01656,-0.04000,0*%
%ADD163T163*%
%AMT162*0 Thermal pad*4,1,8,0.03000,0.00500,0.03000,0.01243,0.01243,0.03000,0.00500,0.03000,0.00500,0.04000,0.01656,0.04000,0.04000,0.01656,0.04000,0.00500,0.03000,0.00500,0*4,1,8,-0.00500,0.03000,-0.01243,0.03000,-0.03000,0.01243,-0.03000,0.00500,-0.04000,0.00500,-0.04000,0.01656,-0.01656,0.04000,-0.00500,0.04000,-0.00500,0.03000,0*4,1,8,-0.03000,-0.00500,-0.03000,-0.01243,-0.01243,-0.03000,-0.00500,-0.03000,-0.00500,-0.04000,-0.01656,-0.04000,-0.04000,-0.01656,-0.04000,-0.00500,-0.03000,-0.00500,0*4,1,8,0.00500,-0.03000,0.01243,-0.03000,0.03000,-0.01243,0.03000,-0.00500,0.04000,-0.00500,0.04000,-0.01656,0.01656,-0.04000,0.00500,-0.04000,0.00500,-0.03000,0*%
%ADD162T162*%
%AMT161*0 Octagon Pad at angle 0*4,1,8,-0.01656,-0.04000,0.01656,-0.04000,0.04000,-0.01656,0.04000,0.01656,0.01656,0.04000,-0.01656,0.04000,-0.04000,0.01656,-0.04000,-0.01656,-0.01656,-0.04000,0*%
%ADD161T161*%
%AMT160*0 Thermal pad*4,1,8,0.03000,0.00500,0.03000,0.01243,0.01243,0.03000,0.00500,0.03000,0.00500,0.04000,0.01656,0.04000,0.04000,0.01656,0.04000,0.00500,0.03000,0.00500,0*4,1,8,-0.00500,0.03000,-0.01243,0.03000,-0.03000,0.01243,-0.03000,0.00500,-0.04000,0.00500,-0.04000,0.01656,-0.01656,0.04000,-0.00500,0.04000,-0.00500,0.03000,0*4,1,8,-0.03000,-0.00500,-0.03000,-0.01243,-0.01243,-0.03000,-0.00500,-0.03000,-0.00500,-0.04000,-0.01656,-0.04000,-0.04000,-0.01656,-0.04000,-0.00500,-0.03000,-0.00500,0*4,1,8,0.00500,-0.03000,0.01243,-0.03000,0.03000,-0.01243,0.03000,-0.00500,0.04000,-0.00500,0.04000,-0.01656,0.01656,-0.04000,0.00500,-0.04000,0.00500,-0.03000,0*%
%ADD160T160*%
%AMT159*0 Octagon Pad at angle 0*4,1,8,-0.01656,-0.04000,0.01656,-0.04000,0.04000,-0.01656,0.04000,0.01656,0.01656,0.04000,-0.01656,0.04000,-0.04000,0.01656,-0.04000,-0.01656,-0.01656,-0.04000,0*%
%ADD159T159*%
%AMT158*0 Thermal pad*4,1,8,0.03000,0.00500,0.03000,0.01243,0.01243,0.03000,0.00500,0.03000,0.00500,0.04000,0.01656,0.04000,0.04000,0.01656,0.04000,0.00500,0.03000,0.00500,0*4,1,8,-0.00500,0.03000,-0.01243,0.03000,-0.03000,0.01243,-0.03000,0.00500,-0.04000,0.00500,-0.04000,0.01656,-0.01656,0.04000,-0.00500,0.04000,-0.00500,0.03000,0*4,1,8,-0.03000,-0.00500,-0.03000,-0.01243,-0.01243,-0.03000,-0.00500,-0.03000,-0.00500,-0.04000,-0.01656,-0.04000,-0.04000,-0.01656,-0.04000,-0.00500,-0.03000,-0.00500,0*4,1,8,0.00500,-0.03000,0.01243,-0.03000,0.03000,-0.01243,0.03000,-0.00500,0.04000,-0.00500,0.04000,-0.01656,0.01656,-0.04000,0.00500,-0.04000,0.00500,-0.03000,0*%
%ADD158T158*%
%AMT157*0 Octagon Pad at angle 0*4,1,8,-0.01656,-0.04000,0.01656,-0.04000,0.04000,-0.01656,0.04000,0.01656,0.01656,0.04000,-0.01656,0.04000,-0.04000,0.01656,-0.04000,-0.01656,-0.01656,-0.04000,0*%
%ADD157T157*%
%AMT156*0 Thermal pad*4,1,8,0.03000,0.00500,0.03000,0.01243,0.01243,0.03000,0.00500,0.03000,0.00500,0.04000,0.01656,0.04000,0.04000,0.01656,0.04000,0.00500,0.03000,0.00500,0*4,1,8,-0.00500,0.03000,-0.01243,0.03000,-0.03000,0.01243,-0.03000,0.00500,-0.04000,0.00500,-0.04000,0.01656,-0.01656,0.04000,-0.00500,0.04000,-0.00500,0.03000,0*4,1,8,-0.03000,-0.00500,-0.03000,-0.01243,-0.01243,-0.03000,-0.00500,-0.03000,-0.00500,-0.04000,-0.01656,-0.04000,-0.04000,-0.01656,-0.04000,-0.00500,-0.03000,-0.00500,0*4,1,8,0.00500,-0.03000,0.01243,-0.03000,0.03000,-0.01243,0.03000,-0.00500,0.04000,-0.00500,0.04000,-0.01656,0.01656,-0.04000,0.00500,-0.04000,0.00500,-0.03000,0*%
%ADD156T156*%
%AMT155*0 Octagon Pad at angle 0*4,1,8,-0.01656,-0.04000,0.01656,-0.04000,0.04000,-0.01656,0.04000,0.01656,0.01656,0.04000,-0.01656,0.04000,-0.04000,0.01656,-0.04000,-0.01656,-0.01656,-0.04000,0*%
%ADD155T155*%
%AMT154*0 Thermal pad*4,1,8,0.03000,0.00500,0.03000,0.01243,0.01243,0.03000,0.00500,0.03000,0.00500,0.04000,0.01656,0.04000,0.04000,0.01656,0.04000,0.00500,0.03000,0.00500,0*4,1,8,-0.00500,0.03000,-0.01243,0.03000,-0.03000,0.01243,-0.03000,0.00500,-0.04000,0.00500,-0.04000,0.01656,-0.01656,0.04000,-0.00500,0.04000,-0.00500,0.03000,0*4,1,8,-0.03000,-0.00500,-0.03000,-0.01243,-0.01243,-0.03000,-0.00500,-0.03000,-0.00500,-0.04000,-0.01656,-0.04000,-0.04000,-0.01656,-0.04000,-0.00500,-0.03000,-0.00500,0*4,1,8,0.00500,-0.03000,0.01243,-0.03000,0.03000,-0.01243,0.03000,-0.00500,0.04000,-0.00500,0.04000,-0.01656,0.01656,-0.04000,0.00500,-0.04000,0.00500,-0.03000,0*%
%ADD154T154*%
%AMT153*0 Octagon Pad at angle 0*4,1,8,-0.01656,-0.04000,0.01656,-0.04000,0.04000,-0.01656,0.04000,0.01656,0.01656,0.04000,-0.01656,0.04000,-0.04000,0.01656,-0.04000,-0.01656,-0.01656,-0.04000,0*%
%ADD153T153*%
%AMT152*0 Thermal pad*4,1,8,0.03000,0.00500,0.03000,0.01243,0.01243,0.03000,0.00500,0.03000,0.00500,0.04000,0.01656,0.04000,0.04000,0.01656,0.04000,0.00500,0.03000,0.00500,0*4,1,8,-0.00500,0.03000,-0.01243,0.03000,-0.03000,0.01243,-0.03000,0.00500,-0.04000,0.00500,-0.04000,0.01656,-0.01656,0.04000,-0.00500,0.04000,-0.00500,0.03000,0*4,1,8,-0.03000,-0.00500,-0.03000,-0.01243,-0.01243,-0.03000,-0.00500,-0.03000,-0.00500,-0.04000,-0.01656,-0.04000,-0.04000,-0.01656,-0.04000,-0.00500,-0.03000,-0.00500,0*4,1,8,0.00500,-0.03000,0.01243,-0.03000,0.03000,-0.01243,0.03000,-0.00500,0.04000,-0.00500,0.04000,-0.01656,0.01656,-0.04000,0.00500,-0.04000,0.00500,-0.03000,0*%
%ADD152T152*%
%AMT151*0 Octagon Pad at angle 0*4,1,8,-0.01656,-0.04000,0.01656,-0.04000,0.04000,-0.01656,0.04000,0.01656,0.01656,0.04000,-0.01656,0.04000,-0.04000,0.01656,-0.04000,-0.01656,-0.01656,-0.04000,0*%
%ADD151T151*%
%AMT150*0 Thermal pad*4,1,8,0.03000,0.00500,0.03000,0.01243,0.01243,0.03000,0.00500,0.03000,0.00500,0.04000,0.01656,0.04000,0.04000,0.01656,0.04000,0.00500,0.03000,0.00500,0*4,1,8,-0.00500,0.03000,-0.01243,0.03000,-0.03000,0.01243,-0.03000,0.00500,-0.04000,0.00500,-0.04000,0.01656,-0.01656,0.04000,-0.00500,0.04000,-0.00500,0.03000,0*4,1,8,-0.03000,-0.00500,-0.03000,-0.01243,-0.01243,-0.03000,-0.00500,-0.03000,-0.00500,-0.04000,-0.01656,-0.04000,-0.04000,-0.01656,-0.04000,-0.00500,-0.03000,-0.00500,0*4,1,8,0.00500,-0.03000,0.01243,-0.03000,0.03000,-0.01243,0.03000,-0.00500,0.04000,-0.00500,0.04000,-0.01656,0.01656,-0.04000,0.00500,-0.04000,0.00500,-0.03000,0*%
%ADD150T150*%
%AMT149*0 Octagon Pad at angle 0*4,1,8,-0.01656,-0.04000,0.01656,-0.04000,0.04000,-0.01656,0.04000,0.01656,0.01656,0.04000,-0.01656,0.04000,-0.04000,0.01656,-0.04000,-0.01656,-0.01656,-0.04000,0*%
%ADD149T149*%
%AMT169*0 Thermal pad*4,1,6,0.04724,0.00500,0.04724,0.04724,0.00500,0.04724,0.00500,0.05724,0.05724,0.05724,0.05724,0.00500,0.04724,0.00500,0*4,1,6,-0.00500,0.04724,-0.04724,0.04724,-0.04724,0.00500,-0.05724,0.00500,-0.05724,0.05724,-0.00500,0.05724,-0.00500,0.04724,0*4,1,6,-0.04724,-0.00500,-0.04724,-0.04724,-0.00500,-0.04724,-0.00500,-0.05724,-0.05724,-0.05724,-0.05724,-0.00500,-0.04724,-0.00500,0*4,1,6,0.00500,-0.04724,0.04724,-0.04724,0.04724,-0.00500,0.05724,-0.00500,0.05724,-0.05724,0.00500,-0.05724,0.00500,-0.04724,0*%
%ADD169T169*%
%AMT109*0 Thermal pad*7,0,0,0.06800,0.04800,0.01000,0*%
%ADD109T109*%
%AMT168*0 Thermal pad*7,0,0,0.07906,0.05906,0.01000,0*%
%ADD168T168*%
%ADD138C,0.33496*%
X0Y0D02*
D02*
D100*
X202809Y366470D03*
X222494D03*
X242179D03*
X425250Y75132D03*
Y94817D03*
Y114502D03*
Y153872D03*
Y173557D03*
Y193242D03*
Y232612D03*
Y252297D03*
Y271982D03*
Y311352D03*
Y331037D03*
Y350722D03*
D02*
D107*
X384108Y77179D03*
D02*
D108*
Y67179D03*
D02*
D109*
X58518Y20014D03*
X118163D03*
X225171Y73163D03*
X299266Y15250D03*
X303400Y108518D03*
X310250Y70250D03*
X313045Y153872D03*
Y161746D03*
Y169620D03*
X315250Y55250D03*
Y80250D03*
X319148Y140250D03*
X360289Y122376D03*
Y128281D03*
X362258Y140250D03*
X364423Y170250D03*
D02*
D110*
X240250Y83715D03*
X271707Y161746D03*
X279423Y140093D03*
X279581Y244423D03*
X287455Y100250D03*
Y165683D03*
X300250Y90250D03*
X303203Y125250D03*
Y134187D03*
Y232612D03*
X307140Y75250D03*
X311077Y136156D03*
X329423Y199148D03*
X342573Y29856D03*
X342770Y15998D03*
X358518Y49463D03*
X360289Y60250D03*
Y69226D03*
X362258Y100250D03*
X365250Y90250D03*
X370132Y212927D03*
X372100Y150250D03*
X374069Y252297D03*
X376037Y181431D03*
X378006Y193242D03*
X387848Y123124D03*
X395722Y124344D03*
D02*
D138*
X27809Y27809D03*
Y362455D03*
X354581D03*
X393951Y27809D03*
D02*
D139*
X340250Y41549D03*
Y178951D03*
D02*
D140*
X60250Y120250D03*
X70250D03*
D02*
D149*
X90250Y80250D03*
Y90250D03*
Y100250D03*
Y110250D03*
Y120250D03*
Y130250D03*
Y140250D03*
Y150250D03*
Y160250D03*
Y170250D03*
Y180250D03*
X100250Y80250D03*
Y90250D03*
Y100250D03*
Y110250D03*
Y120250D03*
Y130250D03*
Y140250D03*
Y150250D03*
Y160250D03*
Y170250D03*
Y180250D03*
X280250D03*
Y190250D03*
Y200250D03*
Y210250D03*
Y220250D03*
X290250Y180250D03*
Y190250D03*
Y200250D03*
Y210250D03*
Y220250D03*
D02*
D150*
X100250Y190250D03*
D02*
D151*
X90250D03*
Y200250D03*
X100250D03*
X260250Y290250D03*
Y300250D03*
X270250Y290250D03*
Y300250D03*
D02*
D152*
X250250D03*
D02*
D153*
Y290250D03*
D02*
D154*
X240250Y300250D03*
D02*
D155*
X230250D03*
X240250Y290250D03*
D02*
D156*
X230250D03*
D02*
D157*
X210250D03*
Y300250D03*
X220250Y290250D03*
Y300250D03*
D02*
D158*
X200250Y290250D03*
Y300250D03*
D02*
D159*
X270250Y30250D03*
X280250Y20250D03*
Y30250D03*
D02*
D160*
X270250Y20250D03*
D02*
D161*
X250250Y30250D03*
X260250Y20250D03*
Y30250D03*
D02*
D162*
X250250Y20250D03*
D02*
D163*
X230250Y30250D03*
X240250Y20250D03*
Y30250D03*
D02*
D164*
X230250Y20250D03*
D02*
D165*
X220250D03*
Y30250D03*
D02*
D166*
X33518Y80250D03*
D02*
D167*
X23518D03*
Y90250D03*
Y100250D03*
Y110250D03*
Y120250D03*
Y130250D03*
Y140250D03*
Y150250D03*
Y160250D03*
Y170250D03*
Y180250D03*
Y190250D03*
Y200250D03*
X33518Y90250D03*
Y100250D03*
Y110250D03*
Y120250D03*
Y130250D03*
Y140250D03*
Y150250D03*
Y160250D03*
Y170250D03*
Y180250D03*
Y200250D03*
D02*
D168*
Y190250D03*
D02*
D169*
X261864Y366470D03*
X425250Y55447D03*
Y134187D03*
D02*
D170*
Y212927D03*
Y291667D03*
D02*
D171*
X101825Y20014D03*
X215329Y51510D03*
X316982Y115250D03*
X342770Y70250D03*
X360289Y155250D03*
X0Y0D02*
M02*
