G04 EasyPC Gerber Version 21.0.3 Build 4286 *
%FSLAX35Y35*%
%MOIN*%
%ADD128O,0.07000X0.13000*%
%ADD88R,0.04937X0.06709*%
%ADD131R,0.06906X0.06906*%
%ADD86R,0.07496X0.07496*%
%ADD133R,0.10449X0.10449*%
%ADD132C,0.06906*%
%ADD126C,0.07299*%
%ADD87C,0.07496*%
%ADD82C,0.10449*%
%ADD130R,0.05921X0.02969*%
%ADD125R,0.05331X0.04150*%
%ADD90R,0.05724X0.05134*%
%AMT129*0 Octagon Pad at angle 0*4,1,8,-0.01449,-0.03500,0.01449,-0.03500,0.03500,-0.01449,0.03500,0.01449,0.01449,0.03500,-0.01449,0.03500,-0.03500,0.01449,-0.03500,-0.01449,-0.01449,-0.03500,0*%
%ADD129T129*%
%ADD124C,0.32496*%
%ADD127R,0.11630X0.05724*%
X0Y0D02*
D02*
D82*
X202809Y366470D03*
X222494D03*
X242179D03*
X425250Y75132D03*
Y94817D03*
Y114502D03*
Y153872D03*
Y173557D03*
Y193242D03*
Y232612D03*
Y252297D03*
Y271982D03*
Y311352D03*
Y331037D03*
Y350722D03*
D02*
D86*
X384108Y67179D03*
D02*
D87*
Y77179D03*
D02*
D88*
X86274Y20014D03*
X93754D03*
X147888D03*
X155368D03*
X321313Y15250D03*
X328793D03*
D02*
D90*
X67179Y20014D03*
X74659D03*
X126234D03*
X133715D03*
X306510Y15250D03*
X313990D03*
D02*
D124*
X27809Y27809D03*
Y362455D03*
X354581D03*
X393951Y27809D03*
D02*
D125*
X329423Y50250D03*
Y55250D03*
Y60250D03*
Y65250D03*
Y70250D03*
Y75250D03*
Y80250D03*
Y85250D03*
Y90250D03*
Y95250D03*
Y100250D03*
Y105250D03*
Y110250D03*
Y115250D03*
Y120250D03*
Y125250D03*
Y130250D03*
Y135250D03*
Y140250D03*
Y145250D03*
Y150250D03*
Y155250D03*
Y160250D03*
Y165250D03*
Y170250D03*
X351077Y50250D03*
Y55250D03*
Y60250D03*
Y65250D03*
Y70250D03*
Y75250D03*
Y80250D03*
Y85250D03*
Y90250D03*
Y95250D03*
Y100250D03*
Y105250D03*
Y110250D03*
Y115250D03*
Y120250D03*
Y125250D03*
Y130250D03*
Y135250D03*
Y140250D03*
Y145250D03*
Y150250D03*
Y155250D03*
Y160250D03*
Y165250D03*
Y170250D03*
D02*
D126*
X340250Y41549D03*
Y178951D03*
D02*
D127*
X329423Y40368D03*
Y180132D03*
X351077Y40368D03*
Y180132D03*
D02*
D128*
X60250Y120250D03*
X70250D03*
D02*
D129*
X90250Y80250D03*
Y90250D03*
Y100250D03*
Y110250D03*
Y120250D03*
Y130250D03*
Y140250D03*
Y150250D03*
Y160250D03*
Y170250D03*
Y180250D03*
Y190250D03*
Y200250D03*
X100250Y80250D03*
Y90250D03*
Y100250D03*
Y110250D03*
Y120250D03*
Y130250D03*
Y140250D03*
Y150250D03*
Y160250D03*
Y170250D03*
Y180250D03*
Y190250D03*
Y200250D03*
X200250Y290250D03*
Y300250D03*
X210250Y290250D03*
Y300250D03*
X220250Y20250D03*
Y30250D03*
Y290250D03*
Y300250D03*
X230250Y20250D03*
Y30250D03*
Y290250D03*
Y300250D03*
X240250Y20250D03*
Y30250D03*
Y290250D03*
Y300250D03*
X250250Y20250D03*
Y30250D03*
Y290250D03*
Y300250D03*
X260250Y20250D03*
Y30250D03*
Y290250D03*
Y300250D03*
X270250Y20250D03*
Y30250D03*
Y290250D03*
Y300250D03*
X280250Y20250D03*
Y30250D03*
Y180250D03*
Y190250D03*
Y200250D03*
Y210250D03*
Y220250D03*
X290250Y180250D03*
Y190250D03*
Y200250D03*
Y210250D03*
Y220250D03*
D02*
D130*
X215329Y59974D03*
Y67455D03*
X225171Y59974D03*
Y63715D03*
Y67455D03*
D02*
D131*
X33518Y80250D03*
D02*
D132*
X23518D03*
Y90250D03*
Y100250D03*
Y110250D03*
Y120250D03*
Y130250D03*
Y140250D03*
Y150250D03*
Y160250D03*
Y170250D03*
Y180250D03*
Y190250D03*
Y200250D03*
X33518Y90250D03*
Y100250D03*
Y110250D03*
Y120250D03*
Y130250D03*
Y140250D03*
Y150250D03*
Y160250D03*
Y170250D03*
Y180250D03*
Y190250D03*
Y200250D03*
D02*
D133*
X261864Y366470D03*
X425250Y55447D03*
Y134187D03*
Y212927D03*
Y291667D03*
X0Y0D02*
M02*
