G04 EasyPC Gerber Version 21.0.3 Build 4286 *
%FSLAX35Y35*%
%MOIN*%
%AMT12*0 Octagon Pad at angle 0*4,1,8,-0.01243,-0.03000,0.01243,-0.03000,0.03000,-0.01243,0.03000,0.01243,0.01243,0.03000,-0.01243,0.03000,-0.03000,0.01243,-0.03000,-0.01243,-0.01243,-0.03000,0*%
%ADD12T12*%
%ADD11O,0.06000X0.12000*%
%ADD13R,0.05906X0.05906*%
%ADD17R,0.06496X0.06496*%
%ADD15R,0.09449X0.09449*%
%ADD70C,0.01500*%
%ADD19C,0.04800*%
%ADD71C,0.05600*%
%ADD14C,0.05906*%
%ADD18C,0.06496*%
%ADD16C,0.09449*%
%ADD10C,0.31496*%
X0Y0D02*
D02*
D10*
X27809Y27809D03*
Y362455D03*
X354581D03*
X393951Y27809D03*
D02*
D11*
X60250Y120250D03*
X70250D03*
D02*
D12*
X90250Y80250D03*
Y90250D03*
Y100250D03*
Y110250D03*
Y120250D03*
Y130250D03*
Y140250D03*
Y150250D03*
Y160250D03*
Y170250D03*
Y180250D03*
Y190250D03*
Y200250D03*
X100250Y80250D03*
Y90250D03*
Y100250D03*
Y110250D03*
Y120250D03*
Y130250D03*
Y140250D03*
Y150250D03*
Y160250D03*
Y170250D03*
Y180250D03*
Y190250D03*
Y200250D03*
X200250Y290250D03*
Y300250D03*
X210250Y290250D03*
Y300250D03*
X220250Y20250D03*
Y30250D03*
Y290250D03*
Y300250D03*
X230250Y20250D03*
Y30250D03*
Y290250D03*
Y300250D03*
X240250Y20250D03*
Y30250D03*
Y290250D03*
Y300250D03*
X250250Y20250D03*
Y30250D03*
Y290250D03*
Y300250D03*
X260250Y20250D03*
Y30250D03*
Y290250D03*
Y300250D03*
X270250Y20250D03*
Y30250D03*
Y290250D03*
Y300250D03*
X280250Y20250D03*
Y30250D03*
Y180250D03*
Y190250D03*
Y200250D03*
Y210250D03*
Y220250D03*
X290250Y180250D03*
Y190250D03*
Y200250D03*
Y210250D03*
Y220250D03*
D02*
D13*
X33518Y80250D03*
D02*
D14*
X23518D03*
Y90250D03*
Y100250D03*
Y110250D03*
Y120250D03*
Y130250D03*
Y140250D03*
Y150250D03*
Y160250D03*
Y170250D03*
Y180250D03*
Y190250D03*
Y200250D03*
X33518Y90250D03*
Y100250D03*
Y110250D03*
Y120250D03*
Y130250D03*
Y140250D03*
Y150250D03*
Y160250D03*
Y170250D03*
Y180250D03*
Y190250D03*
Y200250D03*
X425250Y75132D02*
X413715D01*
X393951Y55368*
X368360*
X358518Y49463*
D02*
D15*
X261864Y366470D03*
X425250Y55447D03*
Y134187D03*
Y212927D03*
Y291667D03*
D02*
D16*
X202809Y366470D03*
X222494D03*
X242179D03*
X425250Y75132D03*
Y94817D03*
Y114502D03*
Y153872D03*
Y173557D03*
Y193242D03*
Y232612D03*
Y252297D03*
Y271982D03*
Y311352D03*
Y331037D03*
Y350722D03*
D02*
D17*
X384108Y67179D03*
D02*
D18*
Y77179D03*
D02*
D19*
X58518Y20014D03*
X118163D03*
X225171Y73163D03*
X240250Y83715D03*
X271707Y161746D03*
X279423Y140093D03*
X279581Y244423D03*
X287455Y100250D03*
Y165683D03*
X299266Y15250D03*
X300250Y90250D03*
X303203Y125250D03*
Y134187D03*
Y232612D03*
X303400Y108518D03*
X307140Y75250D03*
X310250Y70250D03*
X311077Y136156D03*
X315250Y55250D03*
Y80250D03*
X319148Y140250D03*
X329423Y199148D03*
X342573Y29856D03*
X342770Y15998D03*
X358518Y49463D03*
X360289Y60250D03*
Y69226D03*
X362258Y100250D03*
Y140250D03*
X364423Y170250D03*
X365250Y90250D03*
X370132Y212927D03*
X372100Y150250D03*
X374069Y252297D03*
X376037Y181431D03*
X378006Y193242D03*
X387848Y123124D03*
X395722Y124344D03*
D02*
D70*
X23518Y200250D02*
Y199305D01*
X27612Y195211*
X69817*
X74856Y200250*
X90250*
X33518Y80250D02*
X38242D01*
X45329Y73163*
X92573*
X99659Y80250*
X100250*
X33518Y90250D02*
X79187D01*
X84069Y85368*
X94974*
X99856Y90250*
X100250*
X33518Y110250D02*
X63754D01*
X68951Y105053*
X94659*
X99856Y110250*
X100250*
X33518Y150250D02*
X35880D01*
X41077Y155447*
X94659*
X99856Y150250*
X100250*
X33518Y170250D02*
X34541D01*
X39423Y175132*
X94974*
X99856Y170250*
X100250*
Y100250D02*
Y98951D01*
X96510Y95211*
X40683*
X35644Y100250*
X33518*
X100250Y120250D02*
Y121392D01*
X96510Y125132*
X76825*
X73675Y128281*
X55171*
X53203Y126313*
X39581*
X33518Y120250*
X100250Y130250D02*
Y131628D01*
X96510Y135368*
X41156*
X36037Y130250*
X33518*
X100250Y140250D02*
X99502D01*
X94541Y145211*
X40998*
X36037Y140250*
X33518*
X100250Y160250D02*
Y161549D01*
X96510Y165289*
X40683*
X35644Y160250*
X33518*
X100250Y180250D02*
Y181628D01*
X96510Y185368*
X38636*
X33518Y180250*
X100250Y200250D02*
Y201116D01*
X98478*
X94541Y205053*
X41392*
X36589Y200250*
X33518*
X240250Y83715D02*
X230250Y73715D01*
Y30250*
X250250D02*
Y71392D01*
X285486Y106628*
X293478*
X297494Y102612*
X360486*
X362258Y100841*
Y100250*
X260250Y20250D02*
Y19581D01*
X265801Y14030*
X283793*
X293360Y23596*
Y61470*
X307140Y75250*
X270250Y30250D02*
Y83045D01*
X287455Y100250*
X271707Y161746D02*
X261864Y171589D01*
Y226707*
X279581Y244423*
X279423Y140093D02*
Y167809D01*
X271707Y175526*
Y228675*
X275644Y232612*
X303203*
X287455Y165683D02*
Y140998D01*
X303203Y125250*
X300250Y90250D02*
X365250D01*
X303203Y134187D02*
X297297Y140093D01*
Y175526*
X372100Y250329*
Y252297*
X374069*
X311077Y136156D02*
X309108D01*
X305171Y140093*
Y177494*
X320919Y193242*
X378006*
X342770Y15998D02*
X336864Y10093D01*
X250250*
X240093Y16313*
X240250*
Y20250*
X360289Y60250D02*
X377179D01*
X384108Y67179*
X360289Y69226D02*
X360368D01*
X379974Y88833*
X391785*
X417455Y114502*
X425250*
X370132Y212927D02*
X343203D01*
X329423Y199148*
X376037Y181431D02*
Y154187D01*
X372100Y150250*
X395722Y124344D02*
Y301510D01*
X425250Y331037*
Y94817D02*
X437258Y82809D01*
Y51431*
X431352Y45526*
X376234*
X360565Y29856*
X342573*
X425250Y350722D02*
X387848Y313321D01*
Y123124*
D02*
D71*
X101825Y20014D03*
X215329Y51510D03*
X316982Y115250D03*
X342770Y70250D03*
X360289Y155250D03*
X0Y0D02*
M02*
